<?xml version="1.0" encoding="utf-8"?>
<!-- Generated by IcoMoon.io -->
<!DOCTYPE svg PUBLIC "-//W3C//DTD SVG 1.1//EN" "http://www.w3.org/Graphics/SVG/1.1/DTD/svg11.dtd">
<svg version="1.1" xmlns="http://www.w3.org/2000/svg" xmlns:xlink="http://www.w3.org/1999/xlink" width="33" height="32" viewBox="0 0 33 32">
<path fill="#fff" stroke="#000" stroke-width="0.8019" stroke-miterlimit="10" stroke-linecap="butt" stroke-linejoin="miter" d="M8.464 23.948h-3.452v-11.471h3.452v11.471z"></path>
<path fill="none" stroke="#000" stroke-width="0.8019" stroke-miterlimit="10" stroke-linecap="butt" stroke-linejoin="miter" d="M3.447 10.472c-0.091 0.23-0.146 0.478-0.146 0.742 0 1.111 0.901 2.011 2.011 2.011h2.84c1.111 0 2.011-0.901 2.011-2.011 0-0.263-0.053-0.512-0.146-0.742h-6.571z"></path>
<path fill="none" stroke="#000" stroke-width="0.8019" stroke-miterlimit="10" stroke-linecap="butt" stroke-linejoin="miter" d="M10.019 26.175c0.091-0.23 0.146-0.478 0.146-0.742 0-1.111-0.901-2.011-2.011-2.011h-2.84c-1.111 0-2.011 0.901-2.011 2.011 0 0.263 0.053 0.512 0.146 0.742h6.571z"></path>
<path fill="#fff" stroke="#000" stroke-width="0.8019" stroke-miterlimit="10" stroke-linecap="butt" stroke-linejoin="miter" d="M17.991 23.948h-3.452v-11.471h3.452v11.471z"></path>
<path fill="none" stroke="#000" stroke-width="0.8019" stroke-miterlimit="10" stroke-linecap="butt" stroke-linejoin="miter" d="M12.974 10.472c-0.091 0.23-0.146 0.478-0.146 0.742 0 1.111 0.901 2.011 2.011 2.011h2.84c1.111 0 2.011-0.901 2.011-2.011 0-0.263-0.053-0.512-0.146-0.742h-6.571z"></path>
<path fill="none" stroke="#000" stroke-width="0.8019" stroke-miterlimit="10" stroke-linecap="butt" stroke-linejoin="miter" d="M19.546 26.175c0.091-0.23 0.146-0.478 0.146-0.742 0-1.111-0.901-2.011-2.011-2.011h-2.84c-1.111 0-2.011 0.901-2.011 2.011 0 0.263 0.053 0.512 0.146 0.742h6.571z"></path>
<path fill="#fff" stroke="#000" stroke-width="0.8019" stroke-miterlimit="10" stroke-linecap="butt" stroke-linejoin="miter" d="M27.517 23.948h-3.452v-11.471h3.452v11.471z"></path>
<path fill="none" stroke="#000" stroke-width="0.8019" stroke-miterlimit="10" stroke-linecap="butt" stroke-linejoin="miter" d="M22.501 10.472c-0.091 0.23-0.146 0.478-0.146 0.742 0 1.111 0.901 2.011 2.011 2.011h2.84c1.111 0 2.011-0.901 2.011-2.011 0-0.263-0.053-0.512-0.146-0.742h-6.571z"></path>
<path fill="none" stroke="#000" stroke-width="0.8019" stroke-miterlimit="10" stroke-linecap="butt" stroke-linejoin="miter" d="M29.073 26.175c0.091-0.23 0.146-0.478 0.146-0.742 0-1.111-0.901-2.011-2.011-2.011h-2.84c-1.111 0-2.011 0.901-2.011 2.011 0 0.263 0.053 0.512 0.146 0.742h6.571z"></path>
<path fill="none" stroke="#000" stroke-width="0.5346" stroke-miterlimit="10" stroke-linecap="butt" stroke-linejoin="miter" d="M6.733 13.225v10.198"></path>
<path fill="none" stroke="#000" stroke-width="0.5346" stroke-miterlimit="10" stroke-linecap="butt" stroke-linejoin="miter" d="M16.182 13.225v10.198"></path>
<path fill="none" stroke="#000" stroke-width="0.5346" stroke-miterlimit="10" stroke-linecap="butt" stroke-linejoin="miter" d="M25.765 13.225v10.198"></path>
<path fill="#fff" stroke="#000" stroke-width="0.8019" stroke-miterlimit="10" stroke-linecap="butt" stroke-linejoin="miter" d="M29.625 28.18h-26.729v-2.005h26.729v2.005z"></path>
<path fill="none" stroke="#000" stroke-width="0.8019" stroke-miterlimit="10" stroke-linecap="butt" stroke-linejoin="miter" d="M32.019 10.339h-31.517v-1.894l15.77-7.885 15.747 7.885v1.894z"></path>
<path fill="none" stroke="#000" stroke-width="0.8019" stroke-miterlimit="10" stroke-linecap="butt" stroke-linejoin="miter" d="M18.098 5.728c0 1.157-0.933 2.096-2.084 2.096s-2.082-0.938-2.082-2.096c0-1.157 0.931-2.096 2.082-2.096s2.084 0.938 2.084 2.096z"></path>
<path fill="#fff" stroke="#000" stroke-width="0.8019" stroke-miterlimit="10" stroke-linecap="butt" stroke-linejoin="miter" d="M31.796 31.499h-31.072v-3.452h31.072v3.452z"></path>
<path fill="none" stroke="#000" stroke-width="0.5346" stroke-miterlimit="10" stroke-linecap="butt" stroke-linejoin="miter" d="M0.78 29.773h4.232"></path>
<path fill="none" stroke="#000" stroke-width="0.5346" stroke-miterlimit="10" stroke-linecap="butt" stroke-linejoin="miter" d="M27.508 29.773h4.232"></path>
</svg>
