<?xml version="1.0" encoding="utf-8"?>
<!-- Generated by IcoMoon.io -->
<!DOCTYPE svg PUBLIC "-//W3C//DTD SVG 1.1//EN" "http://www.w3.org/Graphics/SVG/1.1/DTD/svg11.dtd">
<svg version="1.1" xmlns="http://www.w3.org/2000/svg" xmlns:xlink="http://www.w3.org/1999/xlink" width="32" height="32" viewBox="0 0 32 32">
<path fill="#5e0000" d="M10.446 12.72c-0.324 1.16-0.753 1.932-1.24 2.232-0.349 0.215-0.732 0.344-1.119 0.378 0.824-0.265 1.421-1.038 1.421-1.947 0-1.128-0.919-2.046-2.048-2.046-0.229 0-0.449 0.038-0.655 0.108 0.449-0.236 1.28-0.361 2.425-0.361 0.673 0 1.276 0.044 1.544 0.067-0.040 0.274-0.142 0.898-0.329 1.569zM9.68 15.933c-0.79 0.265-2.648 1.050-3.452 2.761-0.768 1.636-0.518 3.374-0.412 4.116 0.015 0.107 0.031 0.216 0.034 0.267-0.004 0.007-0.006 0.015-0.008 0.023-0.133 0.066-0.234 0.112-0.29 0.136-0.066-0.026-0.195-0.078-0.366-0.158 0.002-0.050 0.018-0.16 0.034-0.268 0.107-0.742 0.357-2.48-0.412-4.116-0.792-1.687-2.61-2.473-3.418-2.749v-1.151c0.132 0.155 0.276 0.29 0.435 0.398 0.445 0.303 0.952 0.463 1.466 0.463 0.565 0 1.092-0.194 1.511-0.544 0.043-0.020 0.082-0.038 0.114-0.054l0.523 0.695c0.027 0.036 0.069 0.057 0.114 0.057s0.087-0.021 0.114-0.057l0.523-0.695c0.077 0.038 0.19 0.090 0.322 0.143 0.391 0.274 0.863 0.425 1.367 0.425v0c0.509 0 1.019-0.149 1.475-0.43 0.112-0.069 0.22-0.157 0.324-0.263v1.001zM9.117 20.264c-0.376 0.597-0.89 1.16-1.514 1.685-0.221 0.185-0.442 0.351-0.654 0.497-0.881-2.374 0.442-5.1 2.988-6.167-0.005 0.745-0.094 2.669-0.82 3.986zM6.122 22.928c-0.006-0.046-0.013-0.098-0.022-0.159-0.103-0.717-0.345-2.396 0.387-3.954 0.455-0.969 1.295-1.63 2.052-2.056-1.834 1.398-2.643 3.758-1.833 5.849-0.12 0.077-0.235 0.147-0.344 0.21-0.093 0.046-0.175 0.082-0.24 0.11zM2.103 20.563c-0.896-1.305-0.998-3.482-1.003-4.285 2.55 1.069 3.873 3.802 2.983 6.179-0.195-0.129-0.396-0.275-0.598-0.438-0.386-0.313-0.734-0.644-1.035-0.993-0.118-0.145-0.234-0.299-0.347-0.463zM4.938 22.769c-0.009 0.061-0.016 0.114-0.022 0.159-0.061-0.026-0.136-0.059-0.222-0.101-0.115-0.063-0.237-0.134-0.365-0.212 0.815-2.093 0.006-4.457-1.83-5.857 0.757 0.427 1.596 1.087 2.052 2.056 0.732 1.558 0.491 3.237 0.387 3.954zM1.957 11.084c1.283 0 2.173 0.156 2.572 0.451 0.001 0.001 0.002 0.001 0.002 0.002-0.267-0.128-0.566-0.2-0.882-0.2-1.129 0-2.048 0.918-2.048 2.046 0 0.951 0.653 1.752 1.534 1.981-0.402-0.029-0.796-0.168-1.148-0.408-1.128-0.767-1.5-3.19-1.577-3.804 0.267-0.023 0.872-0.068 1.547-0.068zM5.204 14.683c0.184-0.252 0.312-0.528 0.387-0.814 0.076 0.286 0.206 0.563 0.392 0.814 0.022 0.030 0.045 0.059 0.069 0.087-0.006 0.006-0.012 0.012-0.017 0.019l-0.481 0.639-0.458-0.609c0.037-0.044 0.074-0.089 0.108-0.136zM3.649 15.143c-0.972 0-1.762-0.79-1.762-1.76s0.791-1.76 1.762-1.76c0.849 0 1.561 0.604 1.726 1.405 0.053 0.51-0.076 1.042-0.402 1.488-0.096 0.131-0.205 0.249-0.324 0.352-0.259 0.116-0.677 0.277-1.001 0.277zM7.46 15.143c-0.256 0-0.571-0.101-0.82-0.2-0.16-0.118-0.303-0.262-0.427-0.429-0.44-0.594-0.524-1.343-0.291-1.99 0.302-0.537 0.878-0.901 1.537-0.901 0.972 0 1.763 0.79 1.763 1.76s-0.791 1.76-1.763 1.76zM1.391 9.027l1.521 0.852c0.047 0.026 0.104 0.024 0.149-0.005 0.426-0.281 1.019-0.603 1.671-0.749v1.026c0 0.079 0.064 0.143 0.143 0.143s0.143-0.064 0.143-0.143v-1.077c0.124-0.017 0.248-0.027 0.374-0.029v1.503c0 0.079 0.064 0.143 0.143 0.143s0.143-0.064 0.143-0.143v-1.503c0.126 0.002 0.251 0.012 0.374 0.029v1.077c0 0.079 0.064 0.143 0.143 0.143s0.143-0.064 0.143-0.143v-1.026c0.652 0.147 1.245 0.468 1.671 0.749 0.045 0.030 0.102 0.032 0.149 0.005l1.521-0.852v1.778c-0.144-0.004-0.295-0.006-0.449-0.006-1.364 0-2.287 0.171-2.742 0.507-0.39 0.288-0.668 0.673-0.825 1.096-0.031 0.057-0.060 0.115-0.086 0.175-0.141-0.493-0.438-0.945-0.879-1.271-0.455-0.336-1.378-0.507-2.742-0.507-0.196 0-0.387 0.004-0.566 0.010v-1.781zM11.048 10.934c-0.024-0.030-0.059-0.049-0.097-0.053-0.006-0.001-0.415-0.043-0.985-0.066v-2.031c0-0.051-0.027-0.098-0.071-0.123s-0.098-0.026-0.142-0.001l-1.659 0.928c-0.607-0.39-1.502-0.83-2.45-0.83h-0.218c-0.948 0-1.843 0.44-2.45 0.83l-1.659-0.928c-0.044-0.025-0.098-0.024-0.142 0.001s-0.071 0.073-0.071 0.123v2.036c-0.509 0.024-0.864 0.061-0.869 0.061-0.078 0.008-0.135 0.077-0.128 0.155 0.010 0.104 0.206 2.082 0.997 3.361v1.457c-0.060-0.017-0.099-0.027-0.111-0.030-0.042-0.010-0.086-0.001-0.12 0.024s-0.055 0.065-0.057 0.108c-0.005 0.125-0.113 3.074 1.050 4.768 0.907 1.322 2.021 2.019 2.649 2.332 0.558 0.31 0.964 0.457 0.991 0.466 0.015 0.006 0.032 0.008 0.048 0.008 0.018 0 0.036-0.004 0.054-0.010 0.026-0.010 0.399-0.163 0.918-0.468 0.63-0.315 1.738-1.012 2.642-2.329 0.15-0.218 0.278-0.457 0.389-0.708 0.285-0.564 0.458-1.154 0.501-1.761 0.201-1.188 0.163-2.225 0.16-2.298-0.002-0.043-0.023-0.083-0.057-0.108s-0.078-0.035-0.12-0.024c-0.009 0.002-0.036 0.009-0.077 0.020v-1.266c0.291-0.428 0.544-1.025 0.756-1.785 0.255-0.915 0.352-1.72 0.356-1.754 0.005-0.038-0.006-0.076-0.030-0.106z"></path>
<path fill="#5e0000" d="M3.644 13.827c-0.253 0-0.458-0.205-0.458-0.458s0.205-0.458 0.458-0.458c0.253 0 0.458 0.205 0.458 0.458s-0.205 0.458-0.458 0.458zM3.644 12.132c-0.685 0-1.24 0.554-1.24 1.238s0.555 1.238 1.24 1.238 1.24-0.554 1.24-1.238c0-0.684-0.555-1.238-1.24-1.238z"></path>
<path fill="#5e0000" d="M7.435 13.827c-0.253 0-0.458-0.205-0.458-0.458s0.205-0.458 0.458-0.458c0.253 0 0.458 0.205 0.458 0.458s-0.205 0.458-0.458 0.458zM7.435 12.132c-0.685 0-1.24 0.554-1.24 1.238s0.555 1.238 1.24 1.238 1.24-0.554 1.24-1.238c0-0.684-0.555-1.238-1.24-1.238z"></path>
<path fill="#5e0000" d="M15.194 14.554c0.542 0 0.922-0.078 1.139-0.233s0.325-0.417 0.325-0.787c0-0.355-0.102-0.629-0.307-0.824s-0.54-0.292-1.006-0.292c-0.155 0-0.296 0.012-0.422 0.037-0.020 0.212-0.030 0.711-0.030 1.496v0.602h0.3zM14.047 12.26h-0.429c-0.030-0.084-0.044-0.161-0.044-0.233 0-0.052 0.013-0.089 0.039-0.113s0.068-0.035 0.127-0.035h1.48c0.925 0 1.547 0.113 1.866 0.34s0.479 0.597 0.479 1.112c0 0.534-0.191 0.949-0.573 1.245s-1.018 0.443-1.908 0.443h-0.189c0.005 0.759 0.015 1.266 0.030 1.522h0.566c0.030 0.074 0.044 0.145 0.044 0.214 0 0.061-0.012 0.105-0.037 0.129s-0.068 0.037-0.129 0.037h-1.775c-0.032-0.084-0.048-0.161-0.048-0.233 0-0.052 0.013-0.089 0.039-0.113s0.068-0.035 0.127-0.035h0.337c0.020-0.342 0.030-1.22 0.030-2.634 0-0.756-0.010-1.305-0.030-1.648z"></path>
<path fill="#5e0000" d="M18.068 13.45c0-0.067 0.026-0.109 0.078-0.127s0.378-0.038 0.98-0.057c0.015 0.113 0.015 0.265 0 0.454 0.274-0.185 0.537-0.313 0.79-0.384s0.483-0.107 0.69-0.107c0.069 0 0.115 0.008 0.139 0.024s0.035 0.051 0.035 0.105c0 0.106-0.017 0.219-0.050 0.34s-0.073 0.197-0.12 0.229c-0.047 0.032-0.125 0.057-0.233 0.074s-0.172 0.021-0.19 0.011c-0.019-0.010-0.075-0.078-0.168-0.203-0.219 0-0.397 0.070-0.533 0.209s-0.204 0.419-0.204 0.84c0.002 0.756 0.012 1.318 0.030 1.685h0.522c0.030 0.064 0.044 0.133 0.044 0.207 0 0.067-0.014 0.112-0.041 0.137s-0.079 0.037-0.155 0.037h-1.564c-0.032-0.079-0.048-0.153-0.048-0.222 0-0.054 0.014-0.094 0.041-0.12s0.072-0.039 0.133-0.039h0.255c0.020-0.367 0.030-0.847 0.030-1.441 0-0.727-0.028-1.148-0.085-1.263s-0.165-0.174-0.325-0.174c-0.032-0.069-0.048-0.14-0.048-0.214z"></path>
<path fill="#5e0000" d="M23.295 15.378c-0.212-0.037-0.432-0.055-0.658-0.055-0.281 0-0.478 0.047-0.59 0.14s-0.168 0.242-0.168 0.443c0 0.197 0.050 0.345 0.15 0.445s0.255 0.15 0.464 0.15c0.163 0 0.314-0.032 0.455-0.096s0.234-0.153 0.279-0.268c0.046-0.114 0.069-0.295 0.069-0.541v-0.218zM23.369 16.627c-0.207 0.121-0.42 0.212-0.638 0.275s-0.432 0.094-0.642 0.094c-0.333 0-0.581-0.078-0.744-0.235s-0.244-0.388-0.244-0.696c0-0.377 0.134-0.665 0.403-0.864s0.684-0.299 1.247-0.299h0.544c-0.015-0.433-0.077-0.735-0.187-0.905s-0.304-0.255-0.583-0.255c-0.148 0-0.29 0.015-0.425 0.044-0.072 0.143-0.114 0.219-0.128 0.229s-0.084 0.031-0.213 0.065c-0.128 0.033-0.218 0.027-0.268-0.018s-0.102-0.129-0.155-0.249c-0.053-0.121-0.080-0.218-0.080-0.292 0-0.049 0.020-0.087 0.061-0.115s0.207-0.060 0.498-0.1c0.291-0.039 0.6-0.059 0.928-0.059 0.436 0 0.759 0.075 0.967 0.225s0.313 0.426 0.313 0.828v1.138c0 0.527 0.023 0.849 0.068 0.964s0.121 0.162 0.227 0.14c0.030 0.054 0.044 0.107 0.044 0.159 0 0.084-0.052 0.148-0.157 0.192s-0.246 0.066-0.424 0.066c-0.086 0-0.152-0.010-0.198-0.031s-0.118-0.121-0.216-0.301z"></path>
<path fill="#5e0000" d="M27.293 13.719h-0.2c-0.030-0.071-0.044-0.144-0.044-0.218s0.014-0.126 0.043-0.155c0.028-0.030 0.075-0.044 0.139-0.044h0.969c0.032 0.069 0.048 0.143 0.048 0.222 0 0.076-0.016 0.128-0.048 0.155s-0.088 0.041-0.166 0.041h-0.059c-0.091 0.249-0.28 0.8-0.568 1.655s-0.473 1.339-0.559 1.452c-0.085 0.113-0.218 0.17-0.398 0.17-0.293 0-0.451-0.014-0.471-0.041s-0.166-0.463-0.436-1.308-0.435-1.345-0.494-1.502c-0.059-0.156-0.108-0.268-0.148-0.334s-0.084-0.108-0.133-0.124c-0.049-0.016-0.117-0.024-0.204-0.024-0.032-0.079-0.048-0.153-0.048-0.222 0-0.074 0.039-0.122 0.117-0.144s0.292-0.033 0.642-0.033c0.153 0 0.259 0.012 0.318 0.037s0.104 0.068 0.135 0.129c0.031 0.062 0.068 0.206 0.111 0.434s0.168 0.698 0.374 1.409 0.321 1.068 0.344 1.068c0.023 0 0.144-0.372 0.363-1.117s0.343-1.247 0.375-1.505z"></path>
<path fill="#5e0000" d="M30.158 16.501c0.281 0 0.485-0.106 0.61-0.318s0.189-0.538 0.189-0.979c0-0.507-0.065-0.884-0.194-1.13s-0.352-0.369-0.668-0.369c-0.281 0-0.485 0.106-0.61 0.318s-0.189 0.539-0.189 0.983c0 0.505 0.065 0.88 0.194 1.127s0.352 0.369 0.668 0.369zM30.018 16.996c-0.535 0-0.928-0.142-1.18-0.425s-0.377-0.711-0.377-1.282c0-0.658 0.152-1.169 0.457-1.533s0.744-0.547 1.319-0.547c0.535 0 0.928 0.142 1.18 0.425s0.377 0.712 0.377 1.286c0 0.655-0.152 1.165-0.457 1.529s-0.744 0.547-1.319 0.547z"></path>
<path fill="#5e0000" d="M14.491 19.473c-0.096-0.017-0.195-0.025-0.297-0.025-0.127 0-0.216 0.021-0.266 0.063s-0.076 0.109-0.076 0.2c0 0.089 0.023 0.156 0.068 0.201s0.115 0.067 0.209 0.067c0.073 0 0.142-0.014 0.205-0.043s0.105-0.069 0.126-0.121c0.020-0.052 0.031-0.133 0.031-0.244v-0.098zM14.525 20.036c-0.093 0.054-0.189 0.096-0.288 0.124s-0.195 0.042-0.29 0.042c-0.15 0-0.262-0.035-0.335-0.106s-0.11-0.175-0.11-0.314c0-0.17 0.061-0.3 0.182-0.39s0.309-0.135 0.562-0.135h0.245c-0.007-0.195-0.035-0.331-0.084-0.408s-0.137-0.115-0.263-0.115c-0.067 0-0.131 0.007-0.192 0.020-0.032 0.064-0.052 0.099-0.057 0.103s-0.038 0.014-0.096 0.029c-0.058 0.015-0.098 0.012-0.121-0.008s-0.046-0.058-0.070-0.113c-0.024-0.054-0.036-0.098-0.036-0.132 0-0.022 0.009-0.039 0.028-0.052s0.093-0.027 0.224-0.045 0.271-0.027 0.419-0.027c0.197 0 0.342 0.034 0.436 0.102s0.141 0.192 0.141 0.373v0.513c0 0.238 0.010 0.383 0.031 0.435s0.055 0.073 0.103 0.063c0.013 0.024 0.020 0.048 0.020 0.072 0 0.038-0.024 0.067-0.071 0.087s-0.111 0.030-0.191 0.030c-0.039 0-0.069-0.005-0.089-0.014s-0.053-0.055-0.098-0.136z"></path>
<path fill="#5e0000" d="M15.88 18.685c-0.106 0-0.184 0.030-0.235 0.089s-0.077 0.167-0.077 0.322c0 0.133 0.025 0.23 0.074 0.292s0.127 0.092 0.233 0.092c0.112 0 0.195-0.027 0.249-0.082s0.080-0.159 0.080-0.311c0-0.134-0.027-0.235-0.081-0.302s-0.135-0.1-0.243-0.1zM15.61 20.219c-0.039 0.039-0.069 0.083-0.089 0.132s-0.031 0.098-0.031 0.148c0 0.076 0.023 0.13 0.068 0.163s0.137 0.050 0.274 0.050c0.2 0 0.351-0.024 0.453-0.072s0.153-0.117 0.153-0.208c0-0.080-0.037-0.136-0.112-0.167s-0.313-0.047-0.716-0.047zM16.447 18.687c0.062 0.111 0.093 0.229 0.093 0.355 0 0.188-0.060 0.339-0.181 0.455s-0.31 0.173-0.57 0.173c-0.117 0-0.193 0.013-0.227 0.038s-0.052 0.061-0.052 0.109c0 0.058 0.023 0.099 0.070 0.125s0.217 0.038 0.512 0.038c0.29 0 0.478 0.030 0.565 0.089s0.129 0.148 0.129 0.264c0 0.175-0.092 0.314-0.274 0.416s-0.466 0.153-0.85 0.153c-0.187 0-0.312-0.025-0.375-0.076s-0.095-0.121-0.095-0.212c0-0.068 0.018-0.137 0.053-0.207s0.085-0.139 0.149-0.204c-0.055-0.022-0.098-0.055-0.131-0.099s-0.049-0.098-0.049-0.162c0-0.067 0.021-0.128 0.063-0.184s0.107-0.105 0.193-0.147c-0.071-0.029-0.129-0.081-0.173-0.155s-0.066-0.172-0.066-0.292c0-0.195 0.060-0.356 0.18-0.481s0.301-0.188 0.542-0.188c0.133 0 0.256 0.022 0.369 0.065 0.145-0.066 0.231-0.098 0.259-0.098 0.135 0 0.208 0.004 0.22 0.011s0.018 0.019 0.018 0.036c0 0.029-0.013 0.070-0.039 0.124s-0.051 0.081-0.073 0.081-0.096-0.025-0.221-0.075l-0.040 0.048z"></path>
<path fill="#5e0000" d="M17.598 18.718c-0.111 0-0.196 0.040-0.254 0.119s-0.090 0.203-0.095 0.372h0.172c0.182 0 0.307-0.004 0.373-0.011s0.105-0.019 0.115-0.036c0.011-0.017 0.016-0.048 0.016-0.093 0-0.11-0.028-0.196-0.083-0.258s-0.137-0.093-0.244-0.093zM17.661 18.495c0.207 0 0.36 0.049 0.46 0.147s0.15 0.259 0.15 0.483c0 0.099-0.018 0.168-0.053 0.207s-0.113 0.058-0.233 0.058h-0.737c0.002 0.181 0.039 0.323 0.109 0.427s0.195 0.155 0.374 0.155c0.167 0 0.322-0.043 0.465-0.13 0.048 0.048 0.072 0.098 0.072 0.152 0 0.074-0.061 0.127-0.184 0.157s-0.262 0.045-0.416 0.045c-0.285 0-0.489-0.060-0.613-0.181s-0.186-0.323-0.186-0.609c0-0.281 0.070-0.503 0.209-0.666s0.334-0.244 0.583-0.244z"></path>
<path fill="#5e0000" d="M18.991 18.717c0.11-0.073 0.219-0.127 0.326-0.162s0.203-0.052 0.288-0.052c0.148 0 0.259 0.034 0.334 0.102s0.113 0.198 0.113 0.391c0 0.598 0.009 0.914 0.026 0.95s0.057 0.053 0.119 0.052c0.012 0.032 0.018 0.064 0.018 0.097 0 0.030-0.009 0.050-0.028 0.060s-0.054 0.015-0.105 0.015c-0.155 0-0.249-0.002-0.284-0.006s-0.058-0.015-0.070-0.035-0.018-0.052-0.018-0.097v-0.718c0-0.229-0.024-0.381-0.073-0.456s-0.127-0.113-0.234-0.113c-0.092 0-0.172 0.026-0.239 0.078s-0.101 0.146-0.101 0.282v0.351c0 0.197 0.004 0.378 0.012 0.543h0.185c0.013 0.029 0.020 0.060 0.020 0.093 0 0.030-0.006 0.050-0.018 0.062s-0.036 0.017-0.070 0.017h-0.655c-0.015-0.035-0.022-0.069-0.022-0.1 0-0.024 0.006-0.042 0.018-0.054s0.032-0.017 0.060-0.017h0.115c0.009-0.177 0.013-0.393 0.013-0.65 0-0.328-0.013-0.518-0.038-0.57s-0.075-0.078-0.147-0.078c-0.015-0.031-0.022-0.063-0.022-0.097 0-0.030 0.012-0.049 0.035-0.057s0.171-0.017 0.442-0.026c0.007 0.051 0.007 0.117 0 0.197z"></path>
<path fill="#5e0000" d="M21.159 20.203c-0.274 0-0.468-0.058-0.584-0.172s-0.173-0.311-0.173-0.589c0-0.308 0.073-0.542 0.219-0.704s0.367-0.242 0.665-0.242c0.146 0 0.251 0.014 0.317 0.041s0.099 0.068 0.1 0.122c0 0.067-0.023 0.13-0.070 0.19-0.167-0.087-0.309-0.13-0.427-0.13-0.155 0-0.264 0.049-0.329 0.148s-0.098 0.252-0.098 0.462c0 0.215 0.032 0.378 0.095 0.487s0.179 0.164 0.347 0.164c0.128 0 0.276-0.043 0.445-0.128 0.037 0.051 0.055 0.103 0.055 0.157 0 0.063-0.058 0.112-0.173 0.145s-0.245 0.050-0.389 0.050z"></path>
<path fill="#5e0000" d="M23.409 18.725c-0.053 0.163-0.16 0.506-0.321 1.030s-0.28 0.832-0.357 0.926c-0.077 0.094-0.164 0.155-0.262 0.181s-0.208 0.040-0.333 0.040c-0.121 0-0.2-0.009-0.236-0.027s-0.054-0.050-0.054-0.098c0-0.059 0.019-0.112 0.057-0.16 0.209 0.042 0.363 0.058 0.462 0.047s0.197-0.169 0.295-0.476c-0.092-0.003-0.142-0.008-0.15-0.013s-0.066-0.193-0.175-0.562c-0.109-0.369-0.177-0.594-0.204-0.676s-0.049-0.138-0.065-0.17c-0.016-0.032-0.036-0.051-0.061-0.058s-0.056-0.011-0.095-0.011c-0.015-0.037-0.022-0.070-0.022-0.102 0-0.038 0.019-0.060 0.057-0.067s0.115-0.011 0.23-0.011c0.089 0 0.149 0.005 0.18 0.016s0.053 0.030 0.065 0.058 0.031 0.107 0.056 0.236c0.025 0.129 0.078 0.344 0.158 0.644s0.126 0.451 0.136 0.451c0.010 0 0.061-0.173 0.152-0.519s0.143-0.573 0.157-0.681h-0.090c-0.013-0.032-0.020-0.065-0.020-0.098s0.006-0.057 0.019-0.070 0.034-0.020 0.063-0.020h0.47c0.014 0.031 0.022 0.064 0.022 0.1 0 0.034-0.007 0.058-0.022 0.070s-0.040 0.018-0.075 0.018h-0.037z"></path>
</svg>
