<?xml version="1.0" encoding="utf-8"?>
<!-- Generated by IcoMoon.io -->
<!DOCTYPE svg PUBLIC "-//W3C//DTD SVG 1.1//EN" "http://www.w3.org/Graphics/SVG/1.1/DTD/svg11.dtd">
<svg version="1.1" xmlns="http://www.w3.org/2000/svg" xmlns:xlink="http://www.w3.org/1999/xlink" width="32" height="32" viewBox="0 0 32 32">
<path fill="#000" d="M14.596 7.974c-5.2 0-9.429 4.23-9.429 9.429s4.23 9.431 9.429 9.431c5.2 0 9.429-4.231 9.429-9.431s-4.23-9.429-9.429-9.429zM14.596 27.795c-5.73 0-10.39-4.662-10.39-10.392 0-5.729 4.66-10.39 10.39-10.39s10.39 4.662 10.39 10.39c0 5.73-4.66 10.392-10.39 10.392z"></path>
<path fill="#000" d="M14.596 11.918c-3.024 0-5.485 2.46-5.485 5.485 0 3.024 2.461 5.485 5.485 5.485s5.485-2.461 5.485-5.485c0-3.025-2.461-5.485-5.485-5.485zM14.596 23.85c-3.554 0-6.446-2.892-6.446-6.446s2.892-6.446 6.446-6.446c3.554 0 6.446 2.892 6.446 6.446s-2.892 6.446-6.446 6.446z"></path>
<path fill="#000" d="M14.596 16.389c-0.56 0-1.015 0.455-1.015 1.015 0 0.559 0.455 1.014 1.015 1.014s1.015-0.455 1.015-1.014c0-0.56-0.455-1.015-1.015-1.015zM14.596 19.379c-1.090 0-1.976-0.885-1.976-1.975 0-1.090 0.885-1.976 1.976-1.976s1.976 0.885 1.976 1.976c0 1.089-0.885 1.975-1.976 1.975z"></path>
<path fill="#000" d="M15.152 17.422c-0.123 0-0.245-0.046-0.338-0.14-0.188-0.187-0.19-0.491-0.004-0.679l12.152-12.244c0.188-0.187 0.493-0.19 0.679-0.003 0.19 0.187 0.191 0.492 0.004 0.679l-12.151 12.244c-0.096 0.095-0.218 0.142-0.342 0.142z"></path>
<path fill="#000" d="M23.055 9.098h4.271v-2.085h1.709v-1.866h2.028v-1.251h-2.96v-2.807h-1.579v2.028h-1.538v1.602h-1.932v4.378zM28.287 10.059h-6.193v-6.3h1.932v-1.602h1.538v-2.028h3.501v2.807h2.96v3.173h-2.028v1.866h-1.709v2.085z"></path>
<path fill="#000" d="M26.734 9.578h-1.156c1.581 2.212 2.526 4.906 2.526 7.825 0 7.448-6.059 13.508-13.508 13.508-7.447 0-13.507-6.059-13.507-13.508 0-7.447 6.059-13.507 13.507-13.507 2.988 0 5.74 0.992 7.979 2.641v-1.172c-2.29-1.526-5.027-2.429-7.979-2.429-7.976 0-14.468 6.49-14.468 14.468s6.491 14.469 14.468 14.469c7.979 0 14.469-6.491 14.469-14.469 0-2.887-0.866-5.566-2.331-7.825z"></path>
</svg>
