<?xml version="1.0" encoding="utf-8"?>
<!-- Generated by IcoMoon.io -->
<!DOCTYPE svg PUBLIC "-//W3C//DTD SVG 1.1//EN" "http://www.w3.org/Graphics/SVG/1.1/DTD/svg11.dtd">
<svg version="1.1" xmlns="http://www.w3.org/2000/svg" xmlns:xlink="http://www.w3.org/1999/xlink" width="32" height="32" viewBox="0 0 32 32">
<path fill="none" stroke="#000" stroke-width="0.8178" stroke-miterlimit="10" stroke-linecap="butt" stroke-linejoin="miter" d="M31.264 28.756h-30.671v-27.652h30.671v27.652z"></path>
<path fill="none" stroke="#000" stroke-width="0.8889" stroke-miterlimit="10" stroke-linecap="butt" stroke-linejoin="miter" d="M6.293 1.104v27.652"></path>
<path fill="none" stroke="#000" stroke-width="0.8889" stroke-miterlimit="10" stroke-linecap="butt" stroke-linejoin="miter" d="M11.848 1.104v27.652"></path>
<path fill="none" stroke="#000" stroke-width="0.8889" stroke-miterlimit="10" stroke-linecap="butt" stroke-linejoin="miter" d="M4.701 24.65c0 0.674-0.544 1.221-1.213 1.221s-1.212-0.547-1.212-1.221c0-0.674 0.542-1.221 1.212-1.221s1.213 0.547 1.213 1.221z"></path>
<path fill="none" stroke="#000" stroke-width="0.8889" stroke-miterlimit="10" stroke-linecap="butt" stroke-linejoin="miter" d="M10.305 24.65c0 0.674-0.544 1.221-1.213 1.221s-1.212-0.547-1.212-1.221c0-0.674 0.542-1.221 1.212-1.221s1.213 0.547 1.213 1.221z"></path>
<path fill="none" stroke="#000" stroke-width="0.8889" stroke-miterlimit="10" stroke-linecap="butt" stroke-linejoin="miter" d="M0 31.363h31.713"></path>
<path fill="none" stroke="#000" stroke-width="0.8889" stroke-miterlimit="10" stroke-linecap="butt" stroke-linejoin="miter" d="M15.399 6.895h8.519"></path>
<path fill="none" stroke="#000" stroke-width="0.8889" stroke-miterlimit="10" stroke-linecap="butt" stroke-linejoin="miter" d="M15.399 9.592h12.607"></path>
<path fill="none" stroke="#000" stroke-width="0.8889" stroke-miterlimit="10" stroke-linecap="butt" stroke-linejoin="miter" d="M15.399 12.288h8.519"></path>
<path fill="none" stroke="#000" stroke-width="0.8889" stroke-miterlimit="10" stroke-linecap="butt" stroke-linejoin="miter" d="M15.399 14.984h12.607"></path>
</svg>
