<?xml version="1.0" encoding="utf-8"?>
<!-- Generated by IcoMoon.io -->
<!DOCTYPE svg PUBLIC "-//W3C//DTD SVG 1.1//EN" "http://www.w3.org/Graphics/SVG/1.1/DTD/svg11.dtd">
<svg version="1.1" xmlns="http://www.w3.org/2000/svg" xmlns:xlink="http://www.w3.org/1999/xlink" width="32" height="32" viewBox="0 0 32 32">
<path fill="#000" d="M24.382 10.309c-3.678 0-5.327 2.016-6.256 3.444v0.064h-0.044c0.015-0.015 0.036-0.042 0.044-0.064v-2.955h-6.94c0.093 1.953 0 20.875 0 20.875h6.94v-11.664c0-0.624 0.049-1.242 0.235-1.689 0.496-1.244 1.64-2.544 3.558-2.544 2.515 0 3.515 1.918 3.515 4.724v11.173h6.94v-11.969c0-6.42-3.424-9.395-7.991-9.395zM0.405 31.673h6.945v-20.882h-6.945v20.882zM7.805 4.335c0 2.004-1.505 3.609-3.927 3.609h-0.044c-2.329 0-3.835-1.605-3.835-3.609 0-2.045 1.555-3.607 3.927-3.607s3.836 1.562 3.878 3.607z"></path>
</svg>
