<?xml version="1.0" encoding="utf-8"?>
<!-- Generated by IcoMoon.io -->
<!DOCTYPE svg PUBLIC "-//W3C//DTD SVG 1.1//EN" "http://www.w3.org/Graphics/SVG/1.1/DTD/svg11.dtd">
<svg version="1.1" xmlns="http://www.w3.org/2000/svg" xmlns:xlink="http://www.w3.org/1999/xlink" width="32" height="32" viewBox="0 0 32 32">
<path fill="none" stroke="#000" stroke-width="0.8276" stroke-miterlimit="10" stroke-linecap="butt" stroke-linejoin="miter" d="M4.77 24.654l-2.127 4.828-2.126-4.828v-21.568h4.252v21.568z"></path>
<path fill="none" stroke="#000" stroke-width="0.5517" stroke-miterlimit="10" stroke-linecap="butt" stroke-linejoin="miter" d="M2.644 3.086v21.568"></path>
<path fill="none" stroke="#000" stroke-width="0.5517" stroke-miterlimit="10" stroke-linecap="butt" stroke-linejoin="miter" d="M1.763 27.584h1.761"></path>
<path fill="none" stroke="#000" stroke-width="0.8276" stroke-miterlimit="10" stroke-linecap="round" stroke-linejoin="round" d="M0.793 24.654h3.701"></path>
<path fill="none" stroke="#000" stroke-width="0.8276" stroke-miterlimit="10" stroke-linecap="butt" stroke-linejoin="miter" d="M28.692 30.179h-19.366v-22.183h19.366v22.183z"></path>
<path fill="none" stroke="#000" stroke-width="0.8276" stroke-miterlimit="10" stroke-linecap="butt" stroke-linejoin="miter" d="M25.993 7.996v22.183"></path>
<path fill="none" stroke="#000" stroke-width="0.8276" stroke-miterlimit="10" stroke-linecap="butt" stroke-linejoin="miter" d="M28.72 26.894h2.556v-21.793"></path>
<path fill="none" stroke="#000" stroke-width="0.8276" stroke-miterlimit="10" stroke-linecap="butt" stroke-linejoin="miter" d="M11.51 12.441h7.931"></path>
<path fill="none" stroke="#000" stroke-width="0.8276" stroke-miterlimit="10" stroke-linecap="butt" stroke-linejoin="miter" d="M11.51 14.72h12.648"></path>
<path fill="none" stroke="#000" stroke-width="0.8276" stroke-miterlimit="10" stroke-linecap="butt" stroke-linejoin="miter" d="M11.51 17h7.931"></path>
<path fill="none" stroke="#000" stroke-width="0.8276" stroke-miterlimit="10" stroke-linecap="butt" stroke-linejoin="miter" d="M11.51 19.279h12.648"></path>
<path fill="none" stroke="#000" stroke-width="0.8276" stroke-miterlimit="10" stroke-linecap="butt" stroke-linejoin="miter" d="M11.51 21.558h7.931"></path>
<path fill="none" stroke="#000" stroke-width="0.8276" stroke-miterlimit="10" stroke-linecap="round" stroke-linejoin="round" d="M10.777 1.653h16.509"></path>
<path fill="#000" d="M30.74 5.101h1.032c0.003-0.025 0.010-0.047 0.010-0.072 0-2.146-1.746-3.892-3.892-3.892s-3.892 1.746-3.892 3.892c0 1.194 0.545 2.255 1.394 2.967h1.895v-0.175c-1.287-0.279-2.255-1.423-2.255-2.792 0-1.577 1.281-2.858 2.858-2.858 1.575 0 2.858 1.281 2.858 2.858 0 0.025-0.006 0.047-0.007 0.072z"></path>
<path fill="#000" d="M8.597 4.947c0-1.41 1.028-2.577 2.372-2.808v-1.034c-1.916 0.241-3.407 1.862-3.407 3.843 0 1.194 0.545 2.257 1.394 2.967h1.895v-0.175c-1.287-0.279-2.255-1.423-2.255-2.792z"></path>
<path fill="none" stroke="#000" stroke-width="0.5517" stroke-miterlimit="10" stroke-linecap="butt" stroke-linejoin="miter" d="M29.234 4.984c0 0.691-0.56 1.25-1.25 1.25-0.691 0-1.25-0.559-1.25-1.25s0.559-1.25 1.25-1.25c0.69 0 1.25 0.559 1.25 1.25z"></path>
<path fill="none" stroke="#000" stroke-width="0.5517" stroke-miterlimit="10" stroke-linecap="butt" stroke-linejoin="miter" d="M8.597 4.947h2.372"></path>
<path fill="none" stroke="#000" stroke-width="0.5517" stroke-miterlimit="10" stroke-linecap="butt" stroke-linejoin="miter" d="M22.218 4.947h2.372"></path>
<path fill="#000" d="M3.496 27.655l-0.814 1.93-0.815-1.93h1.629z"></path>
</svg>
