<?xml version="1.0" encoding="utf-8"?>
<!-- Generated by IcoMoon.io -->
<!DOCTYPE svg PUBLIC "-//W3C//DTD SVG 1.1//EN" "http://www.w3.org/Graphics/SVG/1.1/DTD/svg11.dtd">
<svg version="1.1" xmlns="http://www.w3.org/2000/svg" xmlns:xlink="http://www.w3.org/1999/xlink" width="32" height="32" viewBox="0 0 32 32">
<path fill="#000" d="M19.242 7.9c0.558-0.421 1.204-0.747 1.905-0.829-0.097 0.419-0.495 0.639-0.841 0.829 0.523-0.155 1.034-0.383 1.585-0.421 0.147-0.005 0.357 0.001 0.41 0.172 0.079 0.213-0.137 0.379-0.3 0.468-0.602 0.311-1.298 0.356-1.91 0.643 1.258-0.118 2.514 0.37 3.469 1.175 1.139 0.938 1.892 2.295 2.166 3.738 1.007 0.27 2.095 0.074 3.040-0.327-0.475 1.076-1.685 1.567-2.79 1.663 0.918 0.347 1.929 0.406 2.9 0.303-0.77 0.853-1.961 1.185-3.080 1.159-0.465 1.902-1.572 3.608-3.008 4.923-2.795 2.53-6.665 3.743-10.405 3.502-3.595-0.219-7.133-1.991-9.257-4.932 0.186 0.109 0.342 0.258 0.519 0.379 1.644 1.19 3.833 1.568 5.788 1.037 1.186-0.306 2.263-0.97 3.124-1.836-0.55 0.037-1.161-0.061-1.56-0.476-0.249-0.237-0.351-0.627-0.201-0.944 0.181-0.401 0.583-0.629 0.963-0.808-1.248 0.178-2.607-0.403-3.182-1.556 0.421-0.503 1.095-0.664 1.721-0.713-0.728-0.212-1.476-0.472-2.028-1.016-0.439-0.411-0.724-0.982-0.81-1.576 0.516-0.096 1.033-0.213 1.562-0.191-1.198-0.624-2.293-1.811-2.197-3.246 2.272 0.829 4.507 1.774 6.641 2.915 0.747 0.41 1.367 1.004 1.978 1.59 0.591-1.536 1.226-3.078 2.188-4.425 0.515-0.709 1.124-1.368 1.871-1.835-0.029 0.232-0.149 0.435-0.258 0.636z"></path>
</svg>
