<?xml version="1.0" encoding="UTF-8" standalone="no"?>
<svg
   xmlns:dc="http://purl.org/dc/elements/1.1/"
   xmlns:cc="http://creativecommons.org/ns#"
   xmlns:rdf="http://www.w3.org/1999/02/22-rdf-syntax-ns#"
   xmlns:svg="http://www.w3.org/2000/svg"
   xmlns="http://www.w3.org/2000/svg"
   viewBox="0 0 291.04126 137.11749"
   height="137.11749"
   width="291.04126"
   xml:space="preserve"
   version="1.1"
   id="svg3348"><metadata
     id="metadata3354"><rdf:RDF><cc:Work
         rdf:about=""><dc:format>image/svg+xml</dc:format><dc:type
           rdf:resource="http://purl.org/dc/dcmitype/StillImage" /><dc:title></dc:title></cc:Work></rdf:RDF></metadata><defs
     id="defs3352"><clipPath
       id="clipPath3362"
       clipPathUnits="userSpaceOnUse"><path
         id="path3364"
         d="m 0,109.694 232.833,0 L 232.833,0 0,0 0,109.694 Z" /></clipPath></defs><g
     transform="matrix(1.25,0,0,-1.25,0,137.1175)"
     id="g3356"><g
       id="g3358"><g
         clip-path="url(#clipPath3362)"
         id="g3360"><g
           transform="translate(76.0074,79.5871)"
           id="g3366"><path
             id="path3368"
             style="fill:#5e0000;fill-opacity:1;fill-rule:nonzero;stroke:none"
             d="m 0,0 c -2.378,-8.525 -5.525,-14.198 -9.101,-16.407 -2.561,-1.581 -5.373,-2.527 -8.214,-2.777 6.046,1.949 10.433,7.627 10.433,14.313 0,8.29 -6.745,15.035 -15.036,15.035 -1.679,0 -3.295,-0.28 -4.805,-0.791 3.299,1.737 9.399,2.65 17.803,2.65 4.937,0 9.366,-0.325 11.334,-0.494 C 2.123,9.519 1.375,4.93 0,0 m -5.622,-23.611 c -5.801,-1.949 -19.438,-7.716 -25.338,-20.289 -5.64,-12.023 -3.805,-24.797 -3.021,-30.252 0.113,-0.784 0.229,-1.59 0.249,-1.961 -0.026,-0.054 -0.045,-0.111 -0.061,-0.169 -0.978,-0.487 -1.714,-0.821 -2.125,-1.001 -0.488,0.191 -1.431,0.575 -2.686,1.161 0.018,0.366 0.135,1.179 0.249,1.97 0.784,5.456 2.619,18.23 -3.021,30.252 -5.817,12.396 -19.156,18.177 -25.089,20.205 l 0,8.456 c 0.967,-1.14 2.027,-2.134 3.191,-2.927 3.268,-2.226 6.991,-3.402 10.764,-3.402 4.144,0 8.016,1.424 11.093,3.996 0.317,0.145 0.6,0.279 0.836,0.394 l 3.839,-5.107 c 0.198,-0.264 0.508,-0.419 0.838,-0.419 0.33,0 0.64,0.155 0.839,0.419 l 3.839,5.107 c 0.567,-0.276 1.395,-0.661 2.367,-1.053 2.868,-2.014 6.334,-3.121 10.031,-3.121 l 0,0 c 3.738,0 7.483,1.093 10.83,3.16 0.821,0.508 1.613,1.155 2.376,1.936 l 0,-7.355 z m -4.131,-31.835 c -2.758,-4.39 -6.53,-8.527 -11.111,-12.382 -1.62,-1.363 -3.244,-2.579 -4.8,-3.65 -6.465,17.447 3.241,37.483 21.93,45.324 -0.038,-5.473 -0.687,-19.615 -6.019,-29.292 m -21.988,-19.578 c -0.043,0.335 -0.099,0.721 -0.163,1.17 -0.757,5.269 -2.53,17.609 2.843,29.062 3.342,7.123 9.506,11.977 15.06,15.112 -13.461,-10.272 -19.404,-27.618 -13.455,-42.991 -0.881,-0.566 -1.727,-1.081 -2.524,-1.546 -0.686,-0.336 -1.282,-0.604 -1.761,-0.807 m -29.497,17.379 c -6.575,9.592 -7.323,25.588 -7.364,31.491 18.721,-7.855 28.428,-27.946 21.895,-45.415 -1.429,0.95 -2.91,2.022 -4.387,3.22 -2.832,2.298 -5.385,4.733 -7.596,7.3 -0.865,1.064 -1.719,2.195 -2.548,3.404 m 20.806,-16.208 c -0.064,-0.449 -0.12,-0.836 -0.164,-1.171 -0.448,0.19 -0.997,0.436 -1.629,0.742 -0.846,0.466 -1.743,0.984 -2.676,1.558 5.984,15.385 0.042,32.76 -13.435,43.045 5.554,-3.135 11.718,-7.99 15.06,-15.113 5.374,-11.453 3.601,-23.792 2.844,-29.061 m -21.881,85.876 c 9.42,0 15.948,-1.146 18.878,-3.315 0.006,-0.005 0.012,-0.009 0.017,-0.014 -1.962,0.941 -4.156,1.47 -6.472,1.47 -8.29,0 -15.036,-6.745 -15.036,-15.035 0,-6.988 4.792,-12.877 11.262,-14.556 -2.954,0.213 -5.846,1.236 -8.429,2.995 -8.279,5.637 -11.009,23.448 -11.576,27.959 1.957,0.169 6.401,0.496 11.356,0.496 m 23.838,-26.452 c 1.352,1.852 2.291,3.883 2.842,5.98 0.558,-2.102 1.509,-4.135 2.879,-5.986 0.163,-0.219 0.333,-0.431 0.504,-0.641 -0.044,-0.041 -0.086,-0.087 -0.124,-0.138 l -3.53,-4.695 -3.365,4.477 c 0.274,0.324 0.541,0.656 0.794,1.003 m -11.415,-3.38 c -7.134,0 -12.937,5.804 -12.937,12.938 0,7.134 5.803,12.937 12.937,12.937 6.233,0 11.458,-4.441 12.671,-10.325 0.386,-3.75 -0.558,-7.656 -2.95,-10.933 -0.704,-0.964 -1.502,-1.827 -2.375,-2.584 -1.902,-0.852 -4.967,-2.033 -7.346,-2.033 m 27.972,0 c -1.881,0 -4.191,0.739 -6.016,1.469 -1.171,0.87 -2.224,1.925 -3.134,3.154 -3.23,4.363 -3.846,9.867 -2.133,14.629 2.219,3.948 6.447,6.623 11.283,6.623 7.134,0 12.938,-5.803 12.938,-12.937 0,-7.134 -5.804,-12.938 -12.938,-12.938 m -44.547,44.952 11.167,-6.259 c 0.343,-0.192 0.763,-0.177 1.091,0.04 3.128,2.068 7.482,4.429 12.269,5.508 l 0,-7.539 c 0,-0.579 0.47,-1.049 1.049,-1.049 0.58,0 1.049,0.47 1.049,1.049 l 0,7.916 c 0.907,0.125 1.824,0.199 2.748,0.211 l 0,-11.047 c 0,-0.579 0.469,-1.049 1.049,-1.049 0.579,0 1.049,0.47 1.049,1.049 l 0,11.047 c 0.923,-0.012 1.84,-0.086 2.746,-0.211 l 0,-7.916 c 0,-0.579 0.47,-1.049 1.049,-1.049 0.58,0 1.049,0.47 1.049,1.049 l 0,7.539 c 4.788,-1.079 9.142,-3.44 12.269,-5.508 0.328,-0.217 0.749,-0.232 1.092,-0.04 l 11.167,6.259 0,-13.067 c -1.058,0.028 -2.165,0.045 -3.298,0.045 -10.013,0 -16.785,-1.254 -20.127,-3.727 -2.863,-2.12 -4.9,-4.944 -6.058,-8.058 -0.229,-0.417 -0.439,-0.845 -0.628,-1.284 -1.035,3.626 -3.214,6.944 -6.453,9.342 -3.342,2.473 -10.113,3.727 -20.127,3.727 -1.442,0 -2.842,-0.027 -4.152,-0.07 l 0,13.092 z M 4.42,13.128 c -0.176,0.22 -0.432,0.359 -0.711,0.388 -0.041,0.005 -3.047,0.314 -7.233,0.488 l 0,14.929 c 0,0.373 -0.198,0.717 -0.519,0.906 -0.321,0.187 -0.718,0.191 -1.043,0.009 l -12.175,-6.823 c -4.452,2.863 -11.024,6.1 -17.983,6.1 l -1.599,0 c -6.959,0 -13.531,-3.237 -17.983,-6.1 l -12.175,6.823 c -0.325,0.182 -0.722,0.178 -1.043,-0.009 -0.322,-0.189 -0.519,-0.533 -0.519,-0.906 l 0,-14.967 c -3.734,-0.178 -6.34,-0.446 -6.379,-0.45 -0.572,-0.059 -0.99,-0.569 -0.936,-1.141 0.072,-0.765 1.513,-15.305 7.315,-24.702 l 0,-10.705 c -0.444,0.128 -0.728,0.2 -0.814,0.221 -0.307,0.076 -0.629,0.01 -0.881,-0.179 -0.252,-0.189 -0.406,-0.481 -0.418,-0.796 -0.038,-0.917 -0.826,-22.596 7.707,-35.045 6.661,-9.717 14.836,-14.838 19.447,-17.142 4.093,-2.28 7.075,-3.357 7.276,-3.428 0.113,-0.041 0.232,-0.061 0.351,-0.061 0.134,0 0.267,0.026 0.393,0.076 0.191,0.077 2.928,1.199 6.741,3.44 4.621,2.317 12.758,7.435 19.394,17.115 1.099,1.604 2.042,3.361 2.854,5.207 2.093,4.142 3.364,8.48 3.678,12.946 1.475,8.73 1.198,16.356 1.175,16.892 -0.012,0.315 -0.166,0.607 -0.418,0.796 -0.252,0.189 -0.575,0.254 -0.881,0.179 -0.068,-0.017 -0.264,-0.066 -0.565,-0.15 l 0,9.305 c 2.137,3.148 3.996,7.532 5.552,13.118 1.874,6.725 2.585,12.64 2.614,12.888 0.033,0.279 -0.047,0.559 -0.222,0.778" /></g><g
           transform="translate(76.0074,79.5871)"
           id="g3370"><path
             id="path3372"
             style="fill:none;stroke:#5e0000;stroke-width:0.25;stroke-linecap:butt;stroke-linejoin:miter;stroke-miterlimit:10;stroke-dasharray:none;stroke-opacity:1"
             d="m 0,0 c -2.378,-8.525 -5.525,-14.198 -9.101,-16.407 -2.561,-1.581 -5.373,-2.527 -8.214,-2.777 6.046,1.949 10.433,7.627 10.433,14.313 0,8.29 -6.745,15.035 -15.036,15.035 -1.679,0 -3.295,-0.28 -4.805,-0.791 3.299,1.737 9.399,2.65 17.803,2.65 4.937,0 9.366,-0.325 11.334,-0.494 C 2.123,9.519 1.375,4.93 0,0 Z m -5.622,-23.611 c -5.801,-1.949 -19.438,-7.716 -25.338,-20.289 -5.64,-12.023 -3.805,-24.797 -3.021,-30.252 0.113,-0.784 0.229,-1.59 0.249,-1.961 -0.026,-0.054 -0.045,-0.111 -0.061,-0.169 -0.978,-0.487 -1.714,-0.821 -2.125,-1.001 -0.488,0.191 -1.431,0.575 -2.686,1.161 0.018,0.366 0.135,1.179 0.249,1.97 0.784,5.456 2.619,18.23 -3.021,30.252 -5.817,12.396 -19.156,18.177 -25.089,20.205 l 0,8.456 c 0.967,-1.14 2.027,-2.134 3.191,-2.927 3.268,-2.226 6.991,-3.402 10.764,-3.402 4.144,0 8.016,1.424 11.093,3.996 0.317,0.145 0.6,0.279 0.836,0.394 l 3.839,-5.107 c 0.198,-0.264 0.508,-0.419 0.838,-0.419 0.33,0 0.64,0.155 0.839,0.419 l 3.839,5.107 c 0.567,-0.276 1.395,-0.661 2.367,-1.053 2.868,-2.014 6.334,-3.121 10.031,-3.121 l 0,0 c 3.738,0 7.483,1.093 10.83,3.16 0.821,0.508 1.613,1.155 2.376,1.936 l 0,-7.355 z m -4.131,-31.835 c -2.758,-4.39 -6.53,-8.527 -11.111,-12.382 -1.62,-1.363 -3.244,-2.579 -4.8,-3.65 -6.465,17.447 3.241,37.483 21.93,45.324 -0.038,-5.473 -0.687,-19.615 -6.019,-29.292 z m -21.988,-19.578 c -0.043,0.335 -0.099,0.721 -0.163,1.17 -0.757,5.269 -2.53,17.609 2.843,29.062 3.342,7.123 9.506,11.977 15.06,15.112 -13.461,-10.272 -19.404,-27.618 -13.455,-42.991 -0.881,-0.566 -1.727,-1.081 -2.524,-1.546 -0.686,-0.336 -1.282,-0.604 -1.761,-0.807 z m -29.497,17.379 c -6.575,9.592 -7.323,25.588 -7.364,31.491 18.721,-7.855 28.428,-27.946 21.895,-45.415 -1.429,0.95 -2.91,2.022 -4.387,3.22 -2.832,2.298 -5.385,4.733 -7.596,7.3 -0.865,1.064 -1.719,2.195 -2.548,3.404 z m 20.806,-16.208 c -0.064,-0.449 -0.12,-0.836 -0.164,-1.171 -0.448,0.19 -0.997,0.436 -1.629,0.742 -0.846,0.466 -1.743,0.984 -2.676,1.558 5.984,15.385 0.042,32.76 -13.435,43.045 5.554,-3.135 11.718,-7.99 15.06,-15.113 5.374,-11.453 3.601,-23.792 2.844,-29.061 z m -21.881,85.876 c 9.42,0 15.948,-1.146 18.878,-3.315 0.006,-0.005 0.012,-0.009 0.017,-0.014 -1.962,0.941 -4.156,1.47 -6.472,1.47 -8.29,0 -15.036,-6.745 -15.036,-15.035 0,-6.988 4.792,-12.877 11.262,-14.556 -2.954,0.213 -5.846,1.236 -8.429,2.995 -8.279,5.637 -11.009,23.448 -11.576,27.959 1.957,0.169 6.401,0.496 11.356,0.496 z m 23.838,-26.452 c 1.352,1.852 2.291,3.883 2.842,5.98 0.558,-2.102 1.509,-4.135 2.879,-5.986 0.163,-0.219 0.333,-0.431 0.504,-0.641 -0.044,-0.041 -0.086,-0.087 -0.124,-0.138 l -3.53,-4.695 -3.365,4.477 c 0.274,0.324 0.541,0.656 0.794,1.003 z m -11.415,-3.38 c -7.134,0 -12.937,5.804 -12.937,12.938 0,7.134 5.803,12.937 12.937,12.937 6.233,0 11.458,-4.441 12.671,-10.325 0.386,-3.75 -0.558,-7.656 -2.95,-10.933 -0.704,-0.964 -1.502,-1.827 -2.375,-2.584 -1.902,-0.852 -4.967,-2.033 -7.346,-2.033 z m 27.972,0 c -1.881,0 -4.191,0.739 -6.016,1.469 -1.171,0.87 -2.224,1.925 -3.134,3.154 -3.23,4.363 -3.846,9.867 -2.133,14.629 2.219,3.948 6.447,6.623 11.283,6.623 7.134,0 12.938,-5.803 12.938,-12.937 0,-7.134 -5.804,-12.938 -12.938,-12.938 z m -44.547,44.952 11.167,-6.259 c 0.343,-0.192 0.763,-0.177 1.091,0.04 3.128,2.068 7.482,4.429 12.269,5.508 l 0,-7.539 c 0,-0.579 0.47,-1.049 1.049,-1.049 0.58,0 1.049,0.47 1.049,1.049 l 0,7.916 c 0.907,0.125 1.824,0.199 2.748,0.211 l 0,-11.047 c 0,-0.579 0.469,-1.049 1.049,-1.049 0.579,0 1.049,0.47 1.049,1.049 l 0,11.047 c 0.923,-0.012 1.84,-0.086 2.746,-0.211 l 0,-7.916 c 0,-0.579 0.47,-1.049 1.049,-1.049 0.58,0 1.049,0.47 1.049,1.049 l 0,7.539 c 4.788,-1.079 9.142,-3.44 12.269,-5.508 0.328,-0.217 0.749,-0.232 1.092,-0.04 l 11.167,6.259 0,-13.067 c -1.058,0.028 -2.165,0.045 -3.298,0.045 -10.013,0 -16.785,-1.254 -20.127,-3.727 -2.863,-2.12 -4.9,-4.944 -6.058,-8.058 -0.229,-0.417 -0.439,-0.845 -0.628,-1.284 -1.035,3.626 -3.214,6.944 -6.453,9.342 -3.342,2.473 -10.113,3.727 -20.127,3.727 -1.442,0 -2.842,-0.027 -4.152,-0.07 l 0,13.092 z M 4.42,13.128 c -0.176,0.22 -0.432,0.359 -0.711,0.388 -0.041,0.005 -3.047,0.314 -7.233,0.488 l 0,14.929 c 0,0.373 -0.198,0.717 -0.519,0.906 -0.321,0.187 -0.718,0.191 -1.043,0.009 l -12.175,-6.823 c -4.452,2.863 -11.024,6.1 -17.983,6.1 l -1.599,0 c -6.959,0 -13.531,-3.237 -17.983,-6.1 l -12.175,6.823 c -0.325,0.182 -0.722,0.178 -1.043,-0.009 -0.322,-0.189 -0.519,-0.533 -0.519,-0.906 l 0,-14.967 c -3.734,-0.178 -6.34,-0.446 -6.379,-0.45 -0.572,-0.059 -0.99,-0.569 -0.936,-1.141 0.072,-0.765 1.513,-15.305 7.315,-24.702 l 0,-10.705 c -0.444,0.128 -0.728,0.2 -0.814,0.221 -0.307,0.076 -0.629,0.01 -0.881,-0.179 -0.252,-0.189 -0.406,-0.481 -0.418,-0.796 -0.038,-0.917 -0.826,-22.596 7.707,-35.045 6.661,-9.717 14.836,-14.838 19.447,-17.142 4.093,-2.28 7.075,-3.357 7.276,-3.428 0.113,-0.041 0.232,-0.061 0.351,-0.061 0.134,0 0.267,0.026 0.393,0.076 0.191,0.077 2.928,1.199 6.741,3.44 4.621,2.317 12.758,7.435 19.394,17.115 1.099,1.604 2.042,3.361 2.854,5.207 2.093,4.142 3.364,8.48 3.678,12.946 1.475,8.73 1.198,16.356 1.175,16.892 -0.012,0.315 -0.166,0.607 -0.418,0.796 -0.252,0.189 -0.575,0.254 -0.881,0.179 -0.068,-0.017 -0.264,-0.066 -0.565,-0.15 l 0,9.305 c 2.137,3.148 3.996,7.532 5.552,13.118 1.874,6.725 2.585,12.64 2.614,12.888 0.033,0.279 -0.047,0.559 -0.222,0.778 z" /></g><g
           transform="translate(26.08,71.4494)"
           id="g3374"><path
             id="path3376"
             style="fill:#5e0000;fill-opacity:1;fill-rule:nonzero;stroke:none"
             d="m 0,0 c -1.858,0 -3.364,1.506 -3.364,3.363 0,1.858 1.506,3.364 3.364,3.364 1.857,0 3.363,-1.506 3.363,-3.364 C 3.363,1.506 1.857,0 0,0 m 0,12.463 c -5.025,0 -9.099,-4.074 -9.099,-9.1 0,-5.025 4.074,-9.098 9.099,-9.098 5.025,0 9.099,4.073 9.099,9.098 0,5.026 -4.074,9.1 -9.099,9.1" /></g><g
           transform="translate(53.9079,71.4494)"
           id="g3378"><path
             id="path3380"
             style="fill:#5e0000;fill-opacity:1;fill-rule:nonzero;stroke:none"
             d="m 0,0 c -1.858,0 -3.364,1.506 -3.364,3.363 0,1.858 1.506,3.364 3.364,3.364 1.857,0 3.363,-1.506 3.363,-3.364 C 3.363,1.506 1.857,0 0,0 m 0,12.463 c -5.025,0 -9.099,-4.074 -9.099,-9.1 0,-5.025 4.074,-9.098 9.099,-9.098 5.025,0 9.099,4.073 9.099,9.098 0,5.026 -4.074,9.1 -9.099,9.1" /></g><g
           transform="translate(110.8611,66.1067)"
           id="g3382"><path
             id="path3384"
             style="fill:#5e0000;fill-opacity:1;fill-rule:nonzero;stroke:none"
             d="m 0,0 c 3.982,0 6.769,0.57 8.363,1.711 1.592,1.14 2.389,3.068 2.389,5.783 0,2.606 -0.751,4.624 -2.253,6.055 -1.503,1.429 -3.965,2.145 -7.386,2.145 -1.14,0 -2.172,-0.091 -3.095,-0.272 C -2.127,13.865 -2.199,10.2 -2.199,4.426 L -2.199,0 0,0 Z m -8.417,16.861 -3.149,0 c -0.218,0.615 -0.326,1.185 -0.326,1.71 0,0.381 0.095,0.656 0.285,0.829 0.19,0.172 0.502,0.257 0.936,0.257 l 10.861,0 c 6.788,0 11.354,-0.832 13.698,-2.497 2.344,-1.666 3.516,-4.39 3.516,-8.173 0,-3.928 -1.403,-6.977 -4.209,-9.15 C 10.39,-2.335 5.72,-3.421 -0.814,-3.421 l -1.385,0 c 0.036,-5.575 0.108,-9.304 0.217,-11.186 l 4.154,0 c 0.217,-0.543 0.326,-1.068 0.326,-1.575 0,-0.452 -0.091,-0.769 -0.272,-0.95 -0.181,-0.181 -0.498,-0.271 -0.95,-0.271 l -13.033,0 c -0.235,0.615 -0.352,1.185 -0.352,1.71 0,0.38 0.095,0.656 0.285,0.828 0.19,0.172 0.502,0.258 0.936,0.258 l 2.471,0 c 0.145,2.516 0.217,8.969 0.217,19.359 0,5.556 -0.072,9.593 -0.217,12.109" /></g><g
           transform="translate(110.8611,66.1067)"
           id="g3386"><path
             id="path3388"
             style="fill:none;stroke:#5e0000;stroke-width:0.25;stroke-linecap:butt;stroke-linejoin:miter;stroke-miterlimit:10;stroke-dasharray:none;stroke-opacity:1"
             d="m 0,0 c 3.982,0 6.769,0.57 8.363,1.711 1.592,1.14 2.389,3.068 2.389,5.783 0,2.606 -0.751,4.624 -2.253,6.055 -1.503,1.429 -3.965,2.145 -7.386,2.145 -1.14,0 -2.172,-0.091 -3.095,-0.272 C -2.127,13.865 -2.199,10.2 -2.199,4.426 L -2.199,0 0,0 Z m -8.417,16.861 -3.149,0 c -0.218,0.615 -0.326,1.185 -0.326,1.71 0,0.381 0.095,0.656 0.285,0.829 0.19,0.172 0.502,0.257 0.936,0.257 l 10.861,0 c 6.788,0 11.354,-0.832 13.698,-2.497 2.344,-1.666 3.516,-4.39 3.516,-8.173 0,-3.928 -1.403,-6.977 -4.209,-9.15 C 10.39,-2.335 5.72,-3.421 -0.814,-3.421 l -1.385,0 c 0.036,-5.575 0.108,-9.304 0.217,-11.186 l 4.154,0 c 0.217,-0.543 0.326,-1.068 0.326,-1.575 0,-0.452 -0.091,-0.769 -0.272,-0.95 -0.181,-0.181 -0.498,-0.271 -0.95,-0.271 l -13.033,0 c -0.235,0.615 -0.352,1.185 -0.352,1.71 0,0.38 0.095,0.656 0.285,0.828 0.19,0.172 0.502,0.258 0.936,0.258 l 2.471,0 c 0.145,2.516 0.217,8.969 0.217,19.359 0,5.556 -0.072,9.593 -0.217,12.109 z" /></g><g
           transform="translate(131.9548,74.2251)"
           id="g3390"><path
             id="path3392"
             style="fill:#5e0000;fill-opacity:1;fill-rule:nonzero;stroke:none"
             d="m 0,0 c 0,0.489 0.19,0.801 0.571,0.937 0.379,0.136 2.778,0.276 7.194,0.421 0.109,-0.833 0.109,-1.946 0,-3.34 2.009,1.357 3.942,2.298 5.797,2.824 1.855,0.525 3.543,0.787 5.064,0.787 0.506,0 0.846,-0.059 1.018,-0.176 0.172,-0.118 0.258,-0.376 0.258,-0.774 0,-0.779 -0.123,-1.611 -0.367,-2.498 -0.244,-0.887 -0.538,-1.448 -0.882,-1.683 -0.344,-0.236 -0.915,-0.417 -1.711,-0.543 -0.796,-0.127 -1.262,-0.155 -1.398,-0.082 -0.136,0.072 -0.548,0.57 -1.235,1.494 -1.611,0 -2.915,-0.512 -3.91,-1.535 -0.995,-1.023 -1.494,-3.081 -1.494,-6.176 0.018,-5.558 0.091,-9.684 0.218,-12.381 l 3.829,0 c 0.217,-0.471 0.325,-0.977 0.325,-1.521 0,-0.489 -0.1,-0.823 -0.298,-1.004 -0.2,-0.182 -0.58,-0.272 -1.141,-0.272 l -11.484,0 C 0.117,-24.943 0,-24.4 0,-23.893 c 0,0.398 0.1,0.693 0.299,0.883 0.199,0.19 0.525,0.285 0.977,0.285 l 1.873,0 c 0.145,2.697 0.218,6.226 0.218,10.588 0,5.34 -0.209,8.435 -0.624,9.286 C 2.326,-2 1.529,-1.575 0.354,-1.575 0.117,-1.068 0,-0.543 0,0" /></g><g
           transform="translate(131.9548,74.2251)"
           id="g3394"><path
             id="path3396"
             style="fill:none;stroke:#5e0000;stroke-width:0.25;stroke-linecap:butt;stroke-linejoin:miter;stroke-miterlimit:10;stroke-dasharray:none;stroke-opacity:1"
             d="m 0,0 c 0,0.489 0.19,0.801 0.571,0.937 0.379,0.136 2.778,0.276 7.194,0.421 0.109,-0.833 0.109,-1.946 0,-3.34 2.009,1.357 3.942,2.298 5.797,2.824 1.855,0.525 3.543,0.787 5.064,0.787 0.506,0 0.846,-0.059 1.018,-0.176 0.172,-0.118 0.258,-0.376 0.258,-0.774 0,-0.779 -0.123,-1.611 -0.367,-2.498 -0.244,-0.887 -0.538,-1.448 -0.882,-1.683 -0.344,-0.236 -0.915,-0.417 -1.711,-0.543 -0.796,-0.127 -1.262,-0.155 -1.398,-0.082 -0.136,0.072 -0.548,0.57 -1.235,1.494 -1.611,0 -2.915,-0.512 -3.91,-1.535 -0.995,-1.023 -1.494,-3.081 -1.494,-6.176 0.018,-5.558 0.091,-9.684 0.218,-12.381 l 3.829,0 c 0.217,-0.471 0.325,-0.977 0.325,-1.521 0,-0.489 -0.1,-0.823 -0.298,-1.004 -0.2,-0.182 -0.58,-0.272 -1.141,-0.272 l -11.484,0 C 0.117,-24.943 0,-24.4 0,-23.893 c 0,0.398 0.1,0.693 0.299,0.883 0.199,0.19 0.525,0.285 0.977,0.285 l 1.873,0 c 0.145,2.697 0.218,6.226 0.218,10.588 0,5.34 -0.209,8.435 -0.624,9.286 C 2.326,-2 1.529,-1.575 0.354,-1.575 0.117,-1.068 0,-0.543 0,0 Z" /></g><g
           transform="translate(170.3266,60.0522)"
           id="g3398"><path
             id="path3400"
             style="fill:#5e0000;fill-opacity:1;fill-rule:nonzero;stroke:none"
             d="m 0,0 c -1.557,0.271 -3.168,0.407 -4.833,0.407 -2.063,0 -3.507,-0.344 -4.33,-1.031 -0.824,-0.689 -1.236,-1.775 -1.236,-3.258 0,-1.449 0.367,-2.539 1.099,-3.272 0.734,-0.733 1.869,-1.1 3.408,-1.1 1.195,0 2.308,0.236 3.34,0.706 1.032,0.471 1.715,1.127 2.049,1.969 C -0.168,-4.738 0,-3.412 0,-1.602 L 0,0 Z m 0.543,-9.177 c -1.52,-0.887 -3.081,-1.561 -4.683,-2.022 -1.603,-0.462 -3.173,-0.693 -4.711,-0.693 -2.444,0 -4.263,0.574 -5.458,1.724 -1.194,1.15 -1.791,2.855 -1.791,5.118 0,2.769 0.986,4.887 2.959,6.353 1.973,1.466 5.023,2.2 9.15,2.2 l 3.991,0 c -0.109,3.185 -0.566,5.403 -1.371,6.652 -0.806,1.249 -2.231,1.873 -4.276,1.873 -1.087,0 -2.128,-0.109 -3.123,-0.326 -0.525,-1.05 -0.837,-1.611 -0.936,-1.683 -0.1,-0.073 -0.62,-0.231 -1.562,-0.475 -0.941,-0.245 -1.598,-0.2 -1.968,0.135 -0.371,0.335 -0.752,0.946 -1.14,1.833 -0.39,0.887 -0.584,1.602 -0.584,2.145 0,0.362 0.149,0.642 0.447,0.842 0.299,0.199 1.516,0.443 3.653,0.733 2.135,0.289 4.407,0.434 6.815,0.434 3.203,0 5.57,-0.552 7.099,-1.656 1.53,-1.104 2.295,-3.132 2.295,-6.082 l 0,-8.362 c 0,-3.874 0.167,-6.236 0.502,-7.087 0.335,-0.851 0.891,-1.194 1.67,-1.031 0.217,-0.399 0.325,-0.788 0.325,-1.168 0,-0.615 -0.384,-1.086 -1.153,-1.412 -0.77,-0.326 -1.806,-0.488 -3.109,-0.488 -0.634,0 -1.118,0.077 -1.452,0.23 -0.336,0.154 -0.865,0.891 -1.589,2.213" /></g><g
           transform="translate(170.3266,60.0522)"
           id="g3402"><path
             id="path3404"
             style="fill:none;stroke:#5e0000;stroke-width:0.25;stroke-linecap:butt;stroke-linejoin:miter;stroke-miterlimit:10;stroke-dasharray:none;stroke-opacity:1"
             d="m 0,0 c -1.557,0.271 -3.168,0.407 -4.833,0.407 -2.063,0 -3.507,-0.344 -4.33,-1.031 -0.824,-0.689 -1.236,-1.775 -1.236,-3.258 0,-1.449 0.367,-2.539 1.099,-3.272 0.734,-0.733 1.869,-1.1 3.408,-1.1 1.195,0 2.308,0.236 3.34,0.706 1.032,0.471 1.715,1.127 2.049,1.969 C -0.168,-4.738 0,-3.412 0,-1.602 L 0,0 Z m 0.543,-9.177 c -1.52,-0.887 -3.081,-1.561 -4.683,-2.022 -1.603,-0.462 -3.173,-0.693 -4.711,-0.693 -2.444,0 -4.263,0.574 -5.458,1.724 -1.194,1.15 -1.791,2.855 -1.791,5.118 0,2.769 0.986,4.887 2.959,6.353 1.973,1.466 5.023,2.2 9.15,2.2 l 3.991,0 c -0.109,3.185 -0.566,5.403 -1.371,6.652 -0.806,1.249 -2.231,1.873 -4.276,1.873 -1.087,0 -2.128,-0.109 -3.123,-0.326 -0.525,-1.05 -0.837,-1.611 -0.936,-1.683 -0.1,-0.073 -0.62,-0.231 -1.562,-0.475 -0.941,-0.245 -1.598,-0.2 -1.968,0.135 -0.371,0.335 -0.752,0.946 -1.14,1.833 -0.39,0.887 -0.584,1.602 -0.584,2.145 0,0.362 0.149,0.642 0.447,0.842 0.299,0.199 1.516,0.443 3.653,0.733 2.135,0.289 4.407,0.434 6.815,0.434 3.203,0 5.57,-0.552 7.099,-1.656 1.53,-1.104 2.295,-3.132 2.295,-6.082 l 0,-8.362 c 0,-3.874 0.167,-6.236 0.502,-7.087 0.335,-0.851 0.891,-1.194 1.67,-1.031 0.217,-0.399 0.325,-0.788 0.325,-1.168 0,-0.615 -0.384,-1.086 -1.153,-1.412 -0.77,-0.326 -1.806,-0.488 -3.109,-0.488 -0.634,0 -1.118,0.077 -1.452,0.23 -0.336,0.154 -0.865,0.891 -1.589,2.213 z" /></g><g
           transform="translate(199.6729,72.2432)"
           id="g3406"><path
             id="path3408"
             style="fill:#5e0000;fill-opacity:1;fill-rule:nonzero;stroke:none"
             d="m 0,0 -1.467,0 c -0.217,0.525 -0.325,1.059 -0.325,1.602 0,0.543 0.104,0.923 0.312,1.14 0.208,0.217 0.548,0.326 1.019,0.326 l 7.113,0 C 6.887,2.561 7.005,2.018 7.005,1.439 7.005,0.877 6.887,0.497 6.652,0.298 6.417,0.099 6.009,0 5.43,0 L 4.996,0 c -0.67,-1.829 -2.059,-5.883 -4.168,-12.164 -2.109,-6.281 -3.475,-9.838 -4.1,-10.67 -0.624,-0.833 -1.597,-1.249 -2.919,-1.249 -2.154,0 -3.308,0.1 -3.461,0.299 -0.154,0.199 -1.222,3.403 -3.204,9.611 -1.982,6.208 -3.191,9.887 -3.625,11.037 -0.434,1.149 -0.796,1.968 -1.086,2.457 -0.29,0.489 -0.616,0.792 -0.977,0.91 -0.362,0.117 -0.86,0.176 -1.494,0.176 -0.235,0.579 -0.353,1.122 -0.353,1.629 0,0.543 0.286,0.896 0.856,1.059 0.57,0.163 2.14,0.244 4.71,0.244 1.123,0 1.901,-0.09 2.335,-0.271 0.435,-0.181 0.765,-0.498 0.991,-0.951 0.227,-0.452 0.498,-1.515 0.815,-3.19 0.316,-1.674 1.231,-5.127 2.742,-10.358 1.511,-5.231 2.353,-7.846 2.525,-7.846 0.172,0 1.059,2.737 2.661,8.213 C -1.154,-5.589 -0.235,-1.901 0,0" /></g><g
           transform="translate(199.6729,72.2432)"
           id="g3410"><path
             id="path3412"
             style="fill:none;stroke:#5e0000;stroke-width:0.25;stroke-linecap:butt;stroke-linejoin:miter;stroke-miterlimit:10;stroke-dasharray:none;stroke-opacity:1"
             d="m 0,0 -1.467,0 c -0.217,0.525 -0.325,1.059 -0.325,1.602 0,0.543 0.104,0.923 0.312,1.14 0.208,0.217 0.548,0.326 1.019,0.326 l 7.113,0 C 6.887,2.561 7.005,2.018 7.005,1.439 7.005,0.877 6.887,0.497 6.652,0.298 6.417,0.099 6.009,0 5.43,0 L 4.996,0 c -0.67,-1.829 -2.059,-5.883 -4.168,-12.164 -2.109,-6.281 -3.475,-9.838 -4.1,-10.67 -0.624,-0.833 -1.597,-1.249 -2.919,-1.249 -2.154,0 -3.308,0.1 -3.461,0.299 -0.154,0.199 -1.222,3.403 -3.204,9.611 -1.982,6.208 -3.191,9.887 -3.625,11.037 -0.434,1.149 -0.796,1.968 -1.086,2.457 -0.29,0.489 -0.616,0.792 -0.977,0.91 -0.362,0.117 -0.86,0.176 -1.494,0.176 -0.235,0.579 -0.353,1.122 -0.353,1.629 0,0.543 0.286,0.896 0.856,1.059 0.57,0.163 2.14,0.244 4.71,0.244 1.123,0 1.901,-0.09 2.335,-0.271 0.435,-0.181 0.765,-0.498 0.991,-0.951 0.227,-0.452 0.498,-1.515 0.815,-3.19 0.316,-1.674 1.231,-5.127 2.742,-10.358 1.511,-5.231 2.353,-7.846 2.525,-7.846 0.172,0 1.059,2.737 2.661,8.213 C -1.154,-5.589 -0.235,-1.901 0,0 Z" /></g><g
           transform="translate(220.7069,51.7985)"
           id="g3414"><path
             id="path3416"
             style="fill:#5e0000;fill-opacity:1;fill-rule:nonzero;stroke:none"
             d="m 0,0 c 2.064,0 3.557,0.778 4.48,2.335 0.923,1.556 1.385,3.954 1.385,7.195 0,3.728 -0.475,6.498 -1.426,8.308 -0.949,1.81 -2.584,2.715 -4.9,2.715 -2.064,0 -3.557,-0.778 -4.48,-2.335 -0.924,-1.557 -1.385,-3.964 -1.385,-7.222 0,-3.711 0.476,-6.471 1.425,-8.281 C -3.95,0.905 -2.317,0 0,0 m -1.031,-3.638 c -3.928,0 -6.815,1.04 -8.662,3.122 -1.846,2.081 -2.769,5.222 -2.769,9.421 0,4.833 1.118,8.589 3.353,11.268 2.235,2.679 5.462,4.018 9.68,4.018 3.928,0 6.814,-1.041 8.66,-3.122 1.847,-2.082 2.77,-5.231 2.77,-9.449 0,-4.815 -1.117,-8.561 -3.353,-11.24 -2.236,-2.679 -5.462,-4.018 -9.679,-4.018" /></g><g
           transform="translate(220.7069,51.7985)"
           id="g3418"><path
             id="path3420"
             style="fill:none;stroke:#5e0000;stroke-width:0.25;stroke-linecap:butt;stroke-linejoin:miter;stroke-miterlimit:10;stroke-dasharray:none;stroke-opacity:1"
             d="m 0,0 c 2.064,0 3.557,0.778 4.48,2.335 0.923,1.556 1.385,3.954 1.385,7.195 0,3.728 -0.475,6.498 -1.426,8.308 -0.949,1.81 -2.584,2.715 -4.9,2.715 -2.064,0 -3.557,-0.778 -4.48,-2.335 -0.924,-1.557 -1.385,-3.964 -1.385,-7.222 0,-3.711 0.476,-6.471 1.425,-8.281 C -3.95,0.905 -2.317,0 0,0 Z m -1.031,-3.638 c -3.928,0 -6.815,1.04 -8.662,3.122 -1.846,2.081 -2.769,5.222 -2.769,9.421 0,4.833 1.118,8.589 3.353,11.268 2.235,2.679 5.462,4.018 9.68,4.018 3.928,0 6.814,-1.041 8.66,-3.122 1.847,-2.082 2.77,-5.231 2.77,-9.449 0,-4.815 -1.117,-8.561 -3.353,-11.24 -2.236,-2.679 -5.462,-4.018 -9.679,-4.018 z" /></g><g
           transform="translate(105.704,29.9564)"
           id="g3422"><path
             id="path3424"
             style="fill:#5e0000;fill-opacity:1;fill-rule:nonzero;stroke:none"
             d="m 0,0 c -0.702,0.122 -1.429,0.184 -2.179,0.184 -0.931,0 -1.582,-0.156 -1.954,-0.466 -0.371,-0.31 -0.557,-0.8 -0.557,-1.469 0,-0.653 0.166,-1.145 0.497,-1.475 0.33,-0.331 0.842,-0.496 1.536,-0.496 0.539,0 1.041,0.106 1.506,0.318 0.465,0.212 0.773,0.508 0.925,0.888 C -0.076,-2.137 0,-1.539 0,-0.722 L 0,0 Z m 0.245,-4.139 c -0.686,-0.4 -1.39,-0.703 -2.112,-0.912 -0.723,-0.208 -1.431,-0.312 -2.125,-0.312 -1.102,0 -1.922,0.259 -2.461,0.777 -0.538,0.519 -0.808,1.288 -0.808,2.309 0,1.248 0.445,2.204 1.335,2.865 0.889,0.661 2.265,0.992 4.126,0.992 l 1.8,0 c -0.049,1.436 -0.255,2.436 -0.618,2.999 -0.364,0.564 -1.007,0.845 -1.929,0.845 -0.49,0 -0.959,-0.049 -1.408,-0.147 C -4.192,4.804 -4.333,4.551 -4.377,4.518 -4.422,4.485 -4.657,4.414 -5.081,4.304 c -0.425,-0.11 -0.721,-0.09 -0.888,0.061 -0.167,0.151 -0.339,0.426 -0.514,0.827 -0.176,0.399 -0.264,0.722 -0.264,0.967 0,0.163 0.068,0.29 0.203,0.379 0.134,0.09 0.683,0.2 1.646,0.331 C -3.935,7 -2.91,7.065 -1.824,7.065 -0.38,7.065 0.687,6.816 1.377,6.318 2.067,5.82 2.412,4.906 2.412,3.575 l 0,-3.771 c 0,-1.747 0.075,-2.812 0.227,-3.196 0.151,-0.383 0.401,-0.538 0.753,-0.465 0.098,-0.18 0.147,-0.355 0.147,-0.526 0,-0.278 -0.174,-0.49 -0.521,-0.637 -0.347,-0.147 -0.814,-0.221 -1.402,-0.221 -0.286,0 -0.504,0.035 -0.655,0.105 -0.151,0.069 -0.39,0.401 -0.716,0.997" /></g><g
           transform="translate(105.704,29.9564)"
           id="g3426"><path
             id="path3428"
             style="fill:none;stroke:#5e0000;stroke-width:0.1;stroke-linecap:butt;stroke-linejoin:miter;stroke-miterlimit:10;stroke-dasharray:none;stroke-opacity:1"
             d="m 0,0 c -0.702,0.122 -1.429,0.184 -2.179,0.184 -0.931,0 -1.582,-0.156 -1.954,-0.466 -0.371,-0.31 -0.557,-0.8 -0.557,-1.469 0,-0.653 0.166,-1.145 0.497,-1.475 0.33,-0.331 0.842,-0.496 1.536,-0.496 0.539,0 1.041,0.106 1.506,0.318 0.465,0.212 0.773,0.508 0.925,0.888 C -0.076,-2.137 0,-1.539 0,-0.722 L 0,0 Z m 0.245,-4.139 c -0.686,-0.4 -1.39,-0.703 -2.112,-0.912 -0.723,-0.208 -1.431,-0.312 -2.125,-0.312 -1.102,0 -1.922,0.259 -2.461,0.777 -0.538,0.519 -0.808,1.288 -0.808,2.309 0,1.248 0.445,2.204 1.335,2.865 0.889,0.661 2.265,0.992 4.126,0.992 l 1.8,0 c -0.049,1.436 -0.255,2.436 -0.618,2.999 -0.364,0.564 -1.007,0.845 -1.929,0.845 -0.49,0 -0.959,-0.049 -1.408,-0.147 C -4.192,4.804 -4.333,4.551 -4.377,4.518 -4.422,4.485 -4.657,4.414 -5.081,4.304 c -0.425,-0.11 -0.721,-0.09 -0.888,0.061 -0.167,0.151 -0.339,0.426 -0.514,0.827 -0.176,0.399 -0.264,0.722 -0.264,0.967 0,0.163 0.068,0.29 0.203,0.379 0.134,0.09 0.683,0.2 1.646,0.331 C -3.935,7 -2.91,7.065 -1.824,7.065 -0.38,7.065 0.687,6.816 1.377,6.318 2.067,5.82 2.412,4.906 2.412,3.575 l 0,-3.771 c 0,-1.747 0.075,-2.812 0.227,-3.196 0.151,-0.383 0.401,-0.538 0.753,-0.465 0.098,-0.18 0.147,-0.355 0.147,-0.526 0,-0.278 -0.174,-0.49 -0.521,-0.637 -0.347,-0.147 -0.814,-0.221 -1.402,-0.221 -0.286,0 -0.504,0.035 -0.655,0.105 -0.151,0.069 -0.39,0.401 -0.716,0.997 z" /></g><g
           transform="translate(115.8965,35.748)"
           id="g3430"><path
             id="path3432"
             style="fill:#5e0000;fill-opacity:1;fill-rule:nonzero;stroke:none"
             d="m 0,0 c -0.776,0 -1.351,-0.219 -1.726,-0.655 -0.376,-0.437 -0.564,-1.227 -0.564,-2.369 0,-0.98 0.182,-1.694 0.545,-2.143 0.363,-0.449 0.933,-0.673 1.708,-0.673 0.825,0 1.433,0.202 1.825,0.605 0.392,0.405 0.587,1.166 0.587,2.284 0,0.988 -0.198,1.727 -0.594,2.216 C 1.385,-0.245 0.792,0 0,0 m -1.984,-11.277 c -0.285,-0.286 -0.504,-0.608 -0.655,-0.967 -0.151,-0.359 -0.226,-0.723 -0.226,-1.09 0,-0.555 0.167,-0.955 0.502,-1.2 0.334,-0.245 1.004,-0.367 2.008,-0.367 1.469,0 2.577,0.175 3.324,0.526 0.747,0.351 1.121,0.861 1.121,1.531 0,0.587 -0.274,0.996 -0.821,1.224 -0.547,0.229 -2.298,0.343 -5.253,0.343 M 4.163,-0.012 C 4.62,-0.829 4.849,-1.698 4.849,-2.62 4.849,-4 4.406,-5.114 3.52,-5.963 2.634,-6.812 1.241,-7.236 -0.661,-7.236 c -0.857,0 -1.413,-0.092 -1.665,-0.276 -0.254,-0.183 -0.38,-0.451 -0.38,-0.802 0,-0.425 0.171,-0.731 0.514,-0.918 0.343,-0.188 1.596,-0.282 3.759,-0.282 2.131,0 3.512,-0.218 4.145,-0.655 0.632,-0.437 0.949,-1.084 0.949,-1.941 0,-1.289 -0.672,-2.31 -2.014,-3.061 -1.343,-0.75 -3.423,-1.126 -6.239,-1.126 -1.371,0 -2.289,0.186 -2.755,0.557 -0.465,0.372 -0.698,0.892 -0.698,1.561 0,0.498 0.131,1.006 0.392,1.524 0.261,0.519 0.625,1.019 1.09,1.5 -0.4,0.164 -0.721,0.406 -0.961,0.729 -0.241,0.322 -0.361,0.72 -0.361,1.194 0,0.49 0.155,0.94 0.465,1.353 0.31,0.412 0.783,0.773 1.42,1.083 -0.522,0.212 -0.945,0.592 -1.267,1.139 -0.323,0.547 -0.484,1.261 -0.484,2.143 0,1.436 0.441,2.614 1.323,3.532 0.881,0.919 2.207,1.378 3.979,1.378 0.98,0 1.881,-0.159 2.706,-0.478 1.061,0.482 1.694,0.723 1.898,0.723 0.988,0 1.526,-0.027 1.616,-0.08 C 6.861,1.508 6.906,1.42 6.906,1.298 6.906,1.085 6.81,0.781 6.618,0.386 6.426,-0.01 6.246,-0.208 6.079,-0.208 c -0.167,0 -0.708,0.183 -1.622,0.551 L 4.163,-0.012 Z" /></g><g
           transform="translate(115.8965,35.748)"
           id="g3434"><path
             id="path3436"
             style="fill:none;stroke:#5e0000;stroke-width:0.1;stroke-linecap:butt;stroke-linejoin:miter;stroke-miterlimit:10;stroke-dasharray:none;stroke-opacity:1"
             d="m 0,0 c -0.776,0 -1.351,-0.219 -1.726,-0.655 -0.376,-0.437 -0.564,-1.227 -0.564,-2.369 0,-0.98 0.182,-1.694 0.545,-2.143 0.363,-0.449 0.933,-0.673 1.708,-0.673 0.825,0 1.433,0.202 1.825,0.605 0.392,0.405 0.587,1.166 0.587,2.284 0,0.988 -0.198,1.727 -0.594,2.216 C 1.385,-0.245 0.792,0 0,0 Z m -1.984,-11.277 c -0.285,-0.286 -0.504,-0.608 -0.655,-0.967 -0.151,-0.359 -0.226,-0.723 -0.226,-1.09 0,-0.555 0.167,-0.955 0.502,-1.2 0.334,-0.245 1.004,-0.367 2.008,-0.367 1.469,0 2.577,0.175 3.324,0.526 0.747,0.351 1.121,0.861 1.121,1.531 0,0.587 -0.274,0.996 -0.821,1.224 -0.547,0.229 -2.298,0.343 -5.253,0.343 z M 4.163,-0.012 C 4.62,-0.829 4.849,-1.698 4.849,-2.62 4.849,-4 4.406,-5.114 3.52,-5.963 2.634,-6.812 1.241,-7.236 -0.661,-7.236 c -0.857,0 -1.413,-0.092 -1.665,-0.276 -0.254,-0.183 -0.38,-0.451 -0.38,-0.802 0,-0.425 0.171,-0.731 0.514,-0.918 0.343,-0.188 1.596,-0.282 3.759,-0.282 2.131,0 3.512,-0.218 4.145,-0.655 0.632,-0.437 0.949,-1.084 0.949,-1.941 0,-1.289 -0.672,-2.31 -2.014,-3.061 -1.343,-0.75 -3.423,-1.126 -6.239,-1.126 -1.371,0 -2.289,0.186 -2.755,0.557 -0.465,0.372 -0.698,0.892 -0.698,1.561 0,0.498 0.131,1.006 0.392,1.524 0.261,0.519 0.625,1.019 1.09,1.5 -0.4,0.164 -0.721,0.406 -0.961,0.729 -0.241,0.322 -0.361,0.72 -0.361,1.194 0,0.49 0.155,0.94 0.465,1.353 0.31,0.412 0.783,0.773 1.42,1.083 -0.522,0.212 -0.945,0.592 -1.267,1.139 -0.323,0.547 -0.484,1.261 -0.484,2.143 0,1.436 0.441,2.614 1.323,3.532 0.881,0.919 2.207,1.378 3.979,1.378 0.98,0 1.881,-0.159 2.706,-0.478 1.061,0.482 1.694,0.723 1.898,0.723 0.988,0 1.526,-0.027 1.616,-0.08 C 6.861,1.508 6.906,1.42 6.906,1.298 6.906,1.085 6.81,0.781 6.618,0.386 6.426,-0.01 6.246,-0.208 6.079,-0.208 c -0.167,0 -0.708,0.183 -1.622,0.551 L 4.163,-0.012 Z" /></g><g
           transform="translate(128.5038,35.5031)"
           id="g3438"><path
             id="path3440"
             style="fill:#5e0000;fill-opacity:1;fill-rule:nonzero;stroke:none"
             d="m 0,0 c -0.817,0 -1.437,-0.292 -1.861,-0.876 -0.425,-0.583 -0.658,-1.495 -0.698,-2.736 l 1.261,0 c 1.339,0 2.251,0.026 2.736,0.08 0.486,0.053 0.767,0.14 0.845,0.263 0.078,0.122 0.117,0.351 0.117,0.686 0,0.808 -0.204,1.44 -0.612,1.897 C 1.379,-0.229 0.784,0 0,0 m 0.465,1.641 c 1.519,0 2.645,-0.359 3.38,-1.078 0.734,-0.718 1.102,-1.902 1.102,-3.551 0,-0.726 -0.131,-1.232 -0.392,-1.518 C 4.293,-4.792 3.722,-4.934 2.841,-4.934 l -5.413,0 c 0.017,-1.331 0.284,-2.376 0.803,-3.135 0.518,-0.759 1.434,-1.139 2.748,-1.139 1.225,0 2.363,0.319 3.416,0.955 0.352,-0.351 0.527,-0.722 0.527,-1.114 0,-0.547 -0.451,-0.931 -1.353,-1.151 -0.902,-0.22 -1.921,-0.33 -3.055,-0.33 -2.09,0 -3.59,0.442 -4.5,1.328 -0.91,0.886 -1.365,2.377 -1.365,4.475 0,2.065 0.512,3.696 1.537,4.892 1.024,1.196 2.451,1.794 4.279,1.794" /></g><g
           transform="translate(128.5038,35.5031)"
           id="g3442"><path
             id="path3444"
             style="fill:none;stroke:#5e0000;stroke-width:0.1;stroke-linecap:butt;stroke-linejoin:miter;stroke-miterlimit:10;stroke-dasharray:none;stroke-opacity:1"
             d="m 0,0 c -0.817,0 -1.437,-0.292 -1.861,-0.876 -0.425,-0.583 -0.658,-1.495 -0.698,-2.736 l 1.261,0 c 1.339,0 2.251,0.026 2.736,0.08 0.486,0.053 0.767,0.14 0.845,0.263 0.078,0.122 0.117,0.351 0.117,0.686 0,0.808 -0.204,1.44 -0.612,1.897 C 1.379,-0.229 0.784,0 0,0 Z m 0.465,1.641 c 1.519,0 2.645,-0.359 3.38,-1.078 0.734,-0.718 1.102,-1.902 1.102,-3.551 0,-0.726 -0.131,-1.232 -0.392,-1.518 C 4.293,-4.792 3.722,-4.934 2.841,-4.934 l -5.413,0 c 0.017,-1.331 0.284,-2.376 0.803,-3.135 0.518,-0.759 1.434,-1.139 2.748,-1.139 1.225,0 2.363,0.319 3.416,0.955 0.352,-0.351 0.527,-0.722 0.527,-1.114 0,-0.547 -0.451,-0.931 -1.353,-1.151 -0.902,-0.22 -1.921,-0.33 -3.055,-0.33 -2.09,0 -3.59,0.442 -4.5,1.328 -0.91,0.886 -1.365,2.377 -1.365,4.475 0,2.065 0.512,3.696 1.537,4.892 1.024,1.196 2.451,1.794 4.279,1.794 z" /></g><g
           transform="translate(138.733,35.5154)"
           id="g3446"><path
             id="path3448"
             style="fill:#5e0000;fill-opacity:1;fill-rule:nonzero;stroke:none"
             d="m 0,0 c 0.808,0.539 1.606,0.934 2.394,1.188 0.788,0.253 1.491,0.379 2.112,0.379 1.086,0 1.904,-0.251 2.455,-0.753 0.551,-0.502 0.826,-1.459 0.826,-2.871 0,-4.392 0.063,-6.718 0.19,-6.979 0.127,-0.262 0.418,-0.388 0.876,-0.38 0.09,-0.237 0.134,-0.474 0.134,-0.71 0,-0.22 -0.069,-0.367 -0.207,-0.441 -0.14,-0.073 -0.397,-0.11 -0.772,-0.11 -1.135,0 -1.828,0.014 -2.082,0.043 -0.253,0.028 -0.424,0.114 -0.514,0.257 -0.09,0.143 -0.134,0.381 -0.134,0.716 l 0,5.278 c 0,1.681 -0.178,2.799 -0.533,3.354 -0.355,0.555 -0.929,0.833 -1.72,0.833 -0.678,0 -1.264,-0.192 -1.758,-0.575 -0.494,-0.384 -0.74,-1.074 -0.74,-2.07 l 0,-2.583 c 0,-1.445 0.028,-2.776 0.085,-3.992 l 1.36,0 c 0.098,-0.212 0.147,-0.441 0.147,-0.686 0,-0.22 -0.046,-0.371 -0.135,-0.453 -0.09,-0.081 -0.261,-0.122 -0.515,-0.122 l -4.811,0 c -0.107,0.261 -0.16,0.506 -0.16,0.735 0,0.179 0.045,0.312 0.135,0.398 0.09,0.085 0.237,0.128 0.441,0.128 l 0.845,0 c 0.065,1.298 0.097,2.89 0.097,4.775 0,2.408 -0.093,3.804 -0.281,4.188 -0.188,0.383 -0.547,0.575 -1.077,0.575 -0.107,0.229 -0.16,0.466 -0.16,0.711 0,0.22 0.086,0.361 0.258,0.422 C -3.073,1.316 -1.992,1.379 0,1.445 0.049,1.069 0.049,0.588 0,0" /></g><g
           transform="translate(138.733,35.5154)"
           id="g3450"><path
             id="path3452"
             style="fill:none;stroke:#5e0000;stroke-width:0.1;stroke-linecap:butt;stroke-linejoin:miter;stroke-miterlimit:10;stroke-dasharray:none;stroke-opacity:1"
             d="m 0,0 c 0.808,0.539 1.606,0.934 2.394,1.188 0.788,0.253 1.491,0.379 2.112,0.379 1.086,0 1.904,-0.251 2.455,-0.753 0.551,-0.502 0.826,-1.459 0.826,-2.871 0,-4.392 0.063,-6.718 0.19,-6.979 0.127,-0.262 0.418,-0.388 0.876,-0.38 0.09,-0.237 0.134,-0.474 0.134,-0.71 0,-0.22 -0.069,-0.367 -0.207,-0.441 -0.14,-0.073 -0.397,-0.11 -0.772,-0.11 -1.135,0 -1.828,0.014 -2.082,0.043 -0.253,0.028 -0.424,0.114 -0.514,0.257 -0.09,0.143 -0.134,0.381 -0.134,0.716 l 0,5.278 c 0,1.681 -0.178,2.799 -0.533,3.354 -0.355,0.555 -0.929,0.833 -1.72,0.833 -0.678,0 -1.264,-0.192 -1.758,-0.575 -0.494,-0.384 -0.74,-1.074 -0.74,-2.07 l 0,-2.583 c 0,-1.445 0.028,-2.776 0.085,-3.992 l 1.36,0 c 0.098,-0.212 0.147,-0.441 0.147,-0.686 0,-0.22 -0.046,-0.371 -0.135,-0.453 -0.09,-0.081 -0.261,-0.122 -0.515,-0.122 l -4.811,0 c -0.107,0.261 -0.16,0.506 -0.16,0.735 0,0.179 0.045,0.312 0.135,0.398 0.09,0.085 0.237,0.128 0.441,0.128 l 0.845,0 c 0.065,1.298 0.097,2.89 0.097,4.775 0,2.408 -0.093,3.804 -0.281,4.188 -0.188,0.383 -0.547,0.575 -1.077,0.575 -0.107,0.229 -0.16,0.466 -0.16,0.711 0,0.22 0.086,0.361 0.258,0.422 C -3.073,1.316 -1.992,1.379 0,1.445 0.049,1.069 0.049,0.588 0,0 Z" /></g><g
           transform="translate(154.6485,24.5934)"
           id="g3454"><path
             id="path3456"
             style="fill:#5e0000;fill-opacity:1;fill-rule:nonzero;stroke:none"
             d="m 0,0 c -2.008,0 -3.437,0.423 -4.286,1.267 -0.848,0.845 -1.273,2.288 -1.273,4.329 0,2.261 0.535,3.985 1.605,5.173 1.069,1.188 2.697,1.781 4.885,1.781 1.069,0 1.845,-0.1 2.326,-0.299 0.481,-0.201 0.726,-0.501 0.735,-0.9 0,-0.49 -0.172,-0.956 -0.515,-1.396 -1.224,0.636 -2.269,0.955 -3.134,0.955 -1.135,0 -1.941,-0.362 -2.418,-1.084 -0.478,-0.722 -0.717,-1.855 -0.717,-3.398 0,-1.583 0.233,-2.777 0.699,-3.581 0.465,-0.804 1.314,-1.206 2.546,-1.206 0.939,0 2.029,0.314 3.269,0.943 C 3.992,2.208 4.127,1.824 4.127,1.433 4.127,0.967 3.704,0.612 2.859,0.367 2.014,0.122 1.061,0 0,0" /></g><g
           transform="translate(154.6485,24.5934)"
           id="g3458"><path
             id="path3460"
             style="fill:none;stroke:#5e0000;stroke-width:0.1;stroke-linecap:butt;stroke-linejoin:miter;stroke-miterlimit:10;stroke-dasharray:none;stroke-opacity:1"
             d="m 0,0 c -2.008,0 -3.437,0.423 -4.286,1.267 -0.848,0.845 -1.273,2.288 -1.273,4.329 0,2.261 0.535,3.985 1.605,5.173 1.069,1.188 2.697,1.781 4.885,1.781 1.069,0 1.845,-0.1 2.326,-0.299 0.481,-0.201 0.726,-0.501 0.735,-0.9 0,-0.49 -0.172,-0.956 -0.515,-1.396 -1.224,0.636 -2.269,0.955 -3.134,0.955 -1.135,0 -1.941,-0.362 -2.418,-1.084 -0.478,-0.722 -0.717,-1.855 -0.717,-3.398 0,-1.583 0.233,-2.777 0.699,-3.581 0.465,-0.804 1.314,-1.206 2.546,-1.206 0.939,0 2.029,0.314 3.269,0.943 C 3.992,2.208 4.127,1.824 4.127,1.433 4.127,0.967 3.704,0.612 2.859,0.367 2.014,0.122 1.061,0 0,0 Z" /></g><g
           transform="translate(171.1644,35.4541)"
           id="g3462"><path
             id="path3464"
             style="fill:#5e0000;fill-opacity:1;fill-rule:nonzero;stroke:none"
             d="m 0,0 c -0.392,-1.2 -1.178,-3.722 -2.357,-7.567 -1.18,-3.845 -2.053,-6.114 -2.621,-6.808 -0.567,-0.693 -1.207,-1.139 -1.922,-1.334 -0.714,-0.196 -1.528,-0.294 -2.442,-0.294 -0.89,0 -1.468,0.065 -1.733,0.196 -0.265,0.131 -0.398,0.371 -0.398,0.722 0,0.433 0.139,0.825 0.417,1.175 1.534,-0.309 2.665,-0.426 3.391,-0.348 0.726,0.077 1.449,1.242 2.168,3.495 -0.678,0.025 -1.046,0.058 -1.102,0.098 -0.058,0.041 -0.487,1.416 -1.286,4.127 -0.8,2.709 -1.3,4.365 -1.5,4.965 -0.201,0.599 -0.359,1.016 -0.478,1.249 -0.118,0.232 -0.267,0.375 -0.447,0.428 -0.18,0.053 -0.412,0.08 -0.697,0.08 -0.107,0.269 -0.16,0.518 -0.16,0.747 0,0.277 0.139,0.442 0.416,0.495 0.278,0.054 0.841,0.08 1.69,0.08 0.653,0 1.094,-0.039 1.323,-0.116 0.228,-0.078 0.387,-0.221 0.477,-0.429 0.09,-0.208 0.226,-0.786 0.411,-1.732 0.183,-0.947 0.57,-2.525 1.162,-4.733 0.592,-2.208 0.925,-3.312 0.999,-3.312 0.073,0 0.444,1.271 1.114,3.814 0.669,2.543 1.053,4.21 1.151,5.002 l -0.662,0 c -0.098,0.236 -0.146,0.478 -0.146,0.722 0,0.245 0.046,0.417 0.14,0.515 0.094,0.098 0.247,0.147 0.46,0.147 l 3.453,0 C 0.926,1.155 0.979,0.91 0.979,0.649 0.979,0.396 0.926,0.224 0.821,0.135 0.714,0.045 0.53,0 0.269,0 L 0,0 Z" /></g><g
           transform="translate(171.1644,35.4541)"
           id="g3466"><path
             id="path3468"
             style="fill:none;stroke:#5e0000;stroke-width:0.1;stroke-linecap:butt;stroke-linejoin:miter;stroke-miterlimit:10;stroke-dasharray:none;stroke-opacity:1"
             d="m 0,0 c -0.392,-1.2 -1.178,-3.722 -2.357,-7.567 -1.18,-3.845 -2.053,-6.114 -2.621,-6.808 -0.567,-0.693 -1.207,-1.139 -1.922,-1.334 -0.714,-0.196 -1.528,-0.294 -2.442,-0.294 -0.89,0 -1.468,0.065 -1.733,0.196 -0.265,0.131 -0.398,0.371 -0.398,0.722 0,0.433 0.139,0.825 0.417,1.175 1.534,-0.309 2.665,-0.426 3.391,-0.348 0.726,0.077 1.449,1.242 2.168,3.495 -0.678,0.025 -1.046,0.058 -1.102,0.098 -0.058,0.041 -0.487,1.416 -1.286,4.127 -0.8,2.709 -1.3,4.365 -1.5,4.965 -0.201,0.599 -0.359,1.016 -0.478,1.249 -0.118,0.232 -0.267,0.375 -0.447,0.428 -0.18,0.053 -0.412,0.08 -0.697,0.08 -0.107,0.269 -0.16,0.518 -0.16,0.747 0,0.277 0.139,0.442 0.416,0.495 0.278,0.054 0.841,0.08 1.69,0.08 0.653,0 1.094,-0.039 1.323,-0.116 0.228,-0.078 0.387,-0.221 0.477,-0.429 0.09,-0.208 0.226,-0.786 0.411,-1.732 0.183,-0.947 0.57,-2.525 1.162,-4.733 0.592,-2.208 0.925,-3.312 0.999,-3.312 0.073,0 0.444,1.271 1.114,3.814 0.669,2.543 1.053,4.21 1.151,5.002 l -0.662,0 c -0.098,0.236 -0.146,0.478 -0.146,0.722 0,0.245 0.046,0.417 0.14,0.515 0.094,0.098 0.247,0.147 0.46,0.147 l 3.453,0 C 0.926,1.155 0.979,0.91 0.979,0.649 0.979,0.396 0.926,0.224 0.821,0.135 0.714,0.045 0.53,0 0.269,0 L 0,0 Z" /></g></g></g></g></svg>