<?xml version="1.0" encoding="UTF-8" standalone="no"?>
<svg
   xmlns:dc="http://purl.org/dc/elements/1.1/"
   xmlns:cc="http://creativecommons.org/ns#"
   xmlns:rdf="http://www.w3.org/1999/02/22-rdf-syntax-ns#"
   xmlns:svg="http://www.w3.org/2000/svg"
   xmlns="http://www.w3.org/2000/svg"
   id="svg3388"
   viewBox="0 0 31.687582 14.888257"
   height="14.888257"
   width="31.687582"
   version="1.1">
  <metadata
     id="metadata3422">
    <rdf:RDF>
      <cc:Work
         rdf:about="">
        <dc:format>image/svg+xml</dc:format>
        <dc:type
           rdf:resource="http://purl.org/dc/dcmitype/StillImage" />
        <dc:title></dc:title>
      </cc:Work>
    </rdf:RDF>
  </metadata>
  <defs
     id="defs3420" />
  <path
     style="fill:#a70c5d"
     id="path3390"
     d="m 10.339581,4.0782575 c -0.324,1.16 -0.7529996,1.932 -1.2399996,2.232 -0.349,0.215 -0.732,0.344 -1.119,0.378 0.824,-0.265 1.421,-1.038 1.421,-1.947 0,-1.128 -0.919,-2.046 -2.048,-2.046 -0.229,0 -0.449,0.038 -0.655,0.108 0.449,-0.236 1.28,-0.361 2.425,-0.361 0.673,0 1.2759996,0.044 1.5439996,0.067 -0.04,0.274 -0.142,0.898 -0.329,1.569 z m -0.7659996,3.213 c -0.79,0.265 -2.648,1.05 -3.452,2.7609995 -0.768,1.636 -0.518,3.374 -0.412,4.116 0.015,0.107 0.031,0.216 0.034,0.267 -0.004,0.007 -0.006,0.015 -0.008,0.023 -0.133,0.066 -0.234,0.112 -0.29,0.136 -0.066,-0.026 -0.195,-0.078 -0.366,-0.158 0.002,-0.05 0.018,-0.16 0.034,-0.268 0.107,-0.742 0.357,-2.48 -0.412,-4.116 -0.792,-1.6869995 -2.61,-2.4729995 -3.4179999,-2.7489995 l 0,-1.151 c 0.132,0.155 0.276,0.29 0.435,0.398 0.4449999,0.303 0.9519999,0.463 1.4659999,0.463 0.565,0 1.092,-0.194 1.511,-0.544 0.043,-0.02 0.082,-0.038 0.114,-0.054 l 0.523,0.695 c 0.027,0.036 0.069,0.057 0.114,0.057 0.045,0 0.087,-0.021 0.114,-0.057 l 0.523,-0.695 c 0.077,0.038 0.19,0.09 0.322,0.143 0.391,0.274 0.863,0.425 1.367,0.425 l 0,0 c 0.509,0 1.019,-0.149 1.475,-0.43 0.112,-0.069 0.22,-0.157 0.324,-0.263 l 0,1.001 z m -0.563,4.3309995 c -0.376,0.597 -0.89,1.16 -1.514,1.685 -0.221,0.185 -0.442,0.351 -0.654,0.497 -0.881,-2.374 0.442,-5.0999995 2.988,-6.1669995 -0.005,0.745 -0.094,2.6689995 -0.82,3.9859995 z m -2.995,2.664 c -0.006,-0.046 -0.013,-0.098 -0.022,-0.159 -0.103,-0.717 -0.345,-2.396 0.387,-3.954 0.455,-0.9689995 1.295,-1.6299995 2.052,-2.0559995 -1.834,1.398 -2.643,3.7579995 -1.833,5.8489995 -0.12,0.077 -0.235,0.147 -0.344,0.21 -0.093,0.046 -0.175,0.082 -0.24,0.11 z m -4.019,-2.365 c -0.8959999,-1.305 -0.99799995,-3.4819995 -1.00299995,-4.2849995 2.54999995,1.069 3.87299995,3.8019995 2.98299995,6.1789995 -0.195,-0.129 -0.396,-0.275 -0.598,-0.438 -0.386,-0.313 -0.734,-0.644 -1.035,-0.993 -0.118,-0.145 -0.234,-0.299 -0.347,-0.463 z m 2.835,2.206 c -0.009,0.061 -0.016,0.114 -0.022,0.159 -0.061,-0.026 -0.136,-0.059 -0.222,-0.101 -0.115,-0.063 -0.237,-0.134 -0.365,-0.212 0.815,-2.093 0.006,-4.4569995 -1.83,-5.8569995 0.757,0.427 1.596,1.087 2.052,2.0559995 0.732,1.558 0.491,3.237 0.387,3.954 z M 1.8505815,2.4422575 c 1.2829999,0 2.1729999,0.156 2.5719999,0.451 10e-4,0.001 0.002,0.001 0.002,0.002 -0.267,-0.128 -0.566,-0.2 -0.882,-0.2 -1.129,0 -2.0479999,0.918 -2.0479999,2.046 0,0.951 0.6529999,1.752 1.5339999,1.981 -0.402,-0.029 -0.796,-0.168 -1.1479999,-0.408 -1.12800005,-0.767 -1.50000005,-3.19 -1.57700005,-3.804 0.267,-0.023 0.87200005,-0.068 1.54700005,-0.068 z m 3.2469999,3.599 c 0.184,-0.252 0.312,-0.528 0.387,-0.814 0.076,0.286 0.206,0.563 0.392,0.814 0.022,0.03 0.045,0.059 0.069,0.087 -0.006,0.006 -0.012,0.012 -0.017,0.019 l -0.481,0.639 -0.458,-0.609 c 0.037,-0.044 0.074,-0.089 0.108,-0.136 z m -1.555,0.46 c -0.972,0 -1.7619999,-0.79 -1.7619999,-1.76 0,-0.97 0.7909999,-1.76 1.7619999,-1.76 0.849,0 1.561,0.604 1.726,1.405 0.053,0.51 -0.076,1.042 -0.402,1.488 -0.096,0.131 -0.205,0.249 -0.324,0.352 -0.259,0.116 -0.677,0.277 -1.001,0.277 z m 3.811,0 c -0.256,0 -0.571,-0.101 -0.82,-0.2 -0.16,-0.118 -0.303,-0.262 -0.427,-0.429 -0.44,-0.594 -0.524,-1.343 -0.291,-1.99 0.302,-0.537 0.878,-0.901 1.537,-0.901 0.972,0 1.763,0.79 1.763,1.76 0,0.97 -0.791,1.76 -1.763,1.76 z m -6.0689999,-6.116 1.5209999,0.852 c 0.047,0.026 0.104,0.024 0.149,-0.005 0.426,-0.281 1.019,-0.603 1.671,-0.749 l 0,1.026 c 0,0.079 0.064,0.143 0.143,0.143 0.079,0 0.143,-0.064 0.143,-0.143 l 0,-1.077 c 0.124,-0.017 0.248,-0.027 0.374,-0.029 l 0,1.503 c 0,0.079 0.064,0.143 0.143,0.143 0.079,0 0.143,-0.064 0.143,-0.143 l 0,-1.503 c 0.126,0.002 0.251,0.012 0.374,0.029 l 0,1.077 c 0,0.079 0.064,0.143 0.143,0.143 0.079,0 0.143,-0.064 0.143,-0.143 l 0,-1.026 c 0.652,0.147 1.245,0.468 1.671,0.749 0.045,0.03 0.102,0.032 0.149,0.005 l 1.521,-0.852 0,1.778 c -0.144,-0.004 -0.295,-0.006 -0.449,-0.006 -1.364,0 -2.287,0.171 -2.742,0.507 -0.39,0.288 -0.668,0.673 -0.825,1.096 -0.031,0.057 -0.06,0.115 -0.086,0.175 -0.141,-0.493 -0.438,-0.945 -0.879,-1.271 -0.455,-0.336 -1.378,-0.507 -2.7419999,-0.507 -0.196,0 -0.387,0.004 -0.566,0.01 l 0,-1.781 z m 9.6569995,1.907 c -0.024,-0.03 -0.059,-0.049 -0.097,-0.053 -0.006,-10e-4 -0.415,-0.043 -0.9849996,-0.066 l 0,-2.031 c 0,-0.051 -0.027,-0.098 -0.071,-0.123 -0.044,-0.025 -0.098,-0.026 -0.142,-0.001 l -1.659,0.928 c -0.607,-0.39 -1.502,-0.83 -2.45,-0.83 l -0.218,0 c -0.948,0 -1.843,0.44 -2.45,0.83 l -1.6589999,-0.928 c -0.044,-0.025 -0.098,-0.024 -0.142,0.001 -0.044,0.025 -0.0710001,0.073 -0.0710001,0.123 l 0,2.036 c -0.509,0.024 -0.864,0.061 -0.869,0.061 -0.078,0.008 -0.135,0.077 -0.12799999713,0.155 0.009999997,0.104 0.20599999713,2.082 0.99699999713,3.361 l 0,1.457 c -0.06,-0.017 -0.099,-0.027 -0.111,-0.03 -0.042,-0.01 -0.086,-0.001 -0.12,0.024 -0.034,0.025 -0.055,0.065 -0.057,0.108 -0.005,0.125 -0.113,3.0739995 1.05000005,4.7679995 0.9069999,1.322 2.0209999,2.019 2.6489999,2.332 0.558,0.31 0.964,0.457 0.991,0.466 0.015,0.006 0.032,0.008 0.048,0.008 0.018,0 0.036,-0.004 0.054,-0.01 0.026,-0.01 0.399,-0.163 0.918,-0.468 0.63,-0.315 1.738,-1.012 2.642,-2.329 0.15,-0.218 0.278,-0.457 0.389,-0.708 0.285,-0.564 0.458,-1.154 0.501,-1.7609995 0.2009996,-1.188 0.1629996,-2.225 0.1599996,-2.298 -0.002,-0.043 -0.023,-0.083 -0.057,-0.108 -0.034,-0.025 -0.078,-0.035 -0.1199996,-0.024 -0.009,0.002 -0.036,0.009 -0.077,0.02 l 0,-1.266 c 0.2909996,-0.428 0.5439996,-1.025 0.7559996,-1.785 0.255,-0.915 0.352,-1.72 0.356,-1.754 0.005,-0.038 -0.006,-0.076 -0.03,-0.106 z" />
  <path
     style="fill:#a70c5d"
     id="path3392"
     d="m 3.5375814,5.1852575 c -0.253,0 -0.458,-0.205 -0.458,-0.458 0,-0.253 0.205,-0.458 0.458,-0.458 0.253,0 0.458,0.205 0.458,0.458 0,0.253 -0.205,0.458 -0.458,0.458 z m 0,-1.695 c -0.685,0 -1.24,0.554 -1.24,1.238 0,0.684 0.555,1.238 1.24,1.238 0.685,0 1.24,-0.554 1.24,-1.238 0,-0.684 -0.555,-1.238 -1.24,-1.238 z" />
  <path
     style="fill:#a70c5d"
     id="path3394"
     d="m 7.3285814,5.1852575 c -0.253,0 -0.458,-0.205 -0.458,-0.458 0,-0.253 0.205,-0.458 0.458,-0.458 0.253,0 0.458,0.205 0.458,0.458 0,0.253 -0.205,0.458 -0.458,0.458 z m 0,-1.695 c -0.685,0 -1.24,0.554 -1.24,1.238 0,0.684 0.555,1.238 1.24,1.238 0.685,0 1.24,-0.554 1.24,-1.238 0,-0.684 -0.555,-1.238 -1.24,-1.238 z" />
  <path
     style="fill:#a70c5d"
     id="path3396"
     d="m 15.087581,5.9122575 c 0.542,0 0.922,-0.078 1.139,-0.233 0.217,-0.155 0.325,-0.417 0.325,-0.787 0,-0.355 -0.102,-0.629 -0.307,-0.824 -0.205,-0.195 -0.54,-0.292 -1.006,-0.292 -0.155,0 -0.296,0.012 -0.422,0.037 -0.02,0.212 -0.03,0.711 -0.03,1.496 l 0,0.602 0.3,0 z m -1.147,-2.294 -0.429,0 c -0.03,-0.084 -0.044,-0.161 -0.044,-0.233 0,-0.052 0.013,-0.089 0.039,-0.113 0.026,-0.024 0.068,-0.035 0.127,-0.035 l 1.48,0 c 0.925,0 1.547,0.113 1.866,0.34 0.319,0.227 0.479,0.597 0.479,1.112 0,0.534 -0.191,0.949 -0.573,1.245 -0.382,0.296 -1.018,0.443 -1.908,0.443 l -0.189,0 c 0.005,0.759 0.015,1.266 0.03,1.522 l 0.566,0 c 0.03,0.074 0.044,0.145 0.044,0.214 0,0.061 -0.012,0.105 -0.037,0.129 -0.025,0.024 -0.068,0.037 -0.129,0.037 l -1.775,0 c -0.032,-0.084 -0.048,-0.161 -0.048,-0.233 0,-0.052 0.013,-0.089 0.039,-0.113 0.026,-0.024 0.068,-0.035 0.127,-0.035 l 0.337,0 c 0.02,-0.342 0.03,-1.22 0.03,-2.634 0,-0.756 -0.01,-1.305 -0.03,-1.648 z" />
  <path
     style="fill:#a70c5d"
     id="path3398"
     d="m 17.961581,4.8082575 c 0,-0.067 0.026,-0.109 0.078,-0.127 0.052,-0.018 0.378,-0.038 0.98,-0.057 0.015,0.113 0.015,0.265 0,0.454 0.274,-0.185 0.537,-0.313 0.79,-0.384 0.253,-0.071 0.483,-0.107 0.69,-0.107 0.069,0 0.115,0.008 0.139,0.024 0.024,0.016 0.035,0.051 0.035,0.105 0,0.106 -0.017,0.219 -0.05,0.34 -0.033,0.121 -0.073,0.197 -0.12,0.229 -0.047,0.032 -0.125,0.057 -0.233,0.074 -0.108,0.017 -0.172,0.021 -0.19,0.011 -0.019,-0.01 -0.075,-0.078 -0.168,-0.203 -0.219,0 -0.397,0.07 -0.533,0.209 -0.136,0.139 -0.204,0.419 -0.204,0.84 0.002,0.756 0.012,1.318 0.03,1.685 l 0.522,0 c 0.03,0.064 0.044,0.133 0.044,0.207 0,0.067 -0.014,0.112 -0.041,0.137 -0.027,0.025 -0.079,0.037 -0.155,0.037 l -1.564,0 c -0.032,-0.079 -0.048,-0.153 -0.048,-0.222 0,-0.054 0.014,-0.094 0.041,-0.12 0.027,-0.026 0.072,-0.039 0.133,-0.039 l 0.255,0 c 0.02,-0.367 0.03,-0.847 0.03,-1.441 0,-0.727 -0.028,-1.148 -0.085,-1.263 -0.057,-0.115 -0.165,-0.174 -0.325,-0.174 -0.032,-0.069 -0.048,-0.14 -0.048,-0.214 z" />
  <path
     style="fill:#a70c5d"
     id="path3400"
     d="m 23.188581,6.7362575 c -0.212,-0.037 -0.432,-0.055 -0.658,-0.055 -0.281,0 -0.478,0.047 -0.59,0.14 -0.112,0.093 -0.168,0.242 -0.168,0.443 0,0.197 0.05,0.345 0.15,0.445 0.1,0.1 0.255,0.15 0.464,0.15 0.163,0 0.314,-0.032 0.455,-0.096 0.141,-0.064 0.234,-0.153 0.279,-0.268 0.046,-0.114 0.069,-0.295 0.069,-0.541 l 0,-0.218 z m 0.074,1.249 c -0.207,0.121 -0.42,0.212 -0.638,0.275 -0.218,0.063 -0.432,0.094 -0.642,0.094 -0.333,0 -0.581,-0.078 -0.744,-0.235 -0.163,-0.157 -0.244,-0.388 -0.244,-0.696 0,-0.377 0.134,-0.665 0.403,-0.864 0.269,-0.199 0.684,-0.299 1.247,-0.299 l 0.544,0 c -0.015,-0.433 -0.077,-0.735 -0.187,-0.905 -0.11,-0.17 -0.304,-0.255 -0.583,-0.255 -0.148,0 -0.29,0.015 -0.425,0.044 -0.072,0.143 -0.114,0.219 -0.128,0.229 -0.014,0.01 -0.084,0.031 -0.213,0.065 -0.128,0.033 -0.218,0.027 -0.268,-0.018 -0.05,-0.045 -0.102,-0.129 -0.155,-0.249 -0.053,-0.121 -0.08,-0.218 -0.08,-0.292 0,-0.049 0.02,-0.087 0.061,-0.115 0.041,-0.028 0.207,-0.06 0.498,-0.1 0.291,-0.039 0.6,-0.059 0.928,-0.059 0.436,0 0.759,0.075 0.967,0.225 0.208,0.15 0.313,0.426 0.313,0.828 l 0,1.138 c 0,0.527 0.023,0.849 0.068,0.964 0.045,0.115 0.121,0.162 0.227,0.14 0.03,0.054 0.044,0.107 0.044,0.159 0,0.084 -0.052,0.148 -0.157,0.192 -0.105,0.044 -0.246,0.066 -0.424,0.066 -0.086,0 -0.152,-0.01 -0.198,-0.031 -0.046,-0.021 -0.118,-0.121 -0.216,-0.301 z" />
  <path
     style="fill:#a70c5d"
     id="path3402"
     d="m 27.186581,5.0772575 -0.2,0 c -0.03,-0.071 -0.044,-0.144 -0.044,-0.218 0,-0.074 0.014,-0.126 0.043,-0.155 0.028,-0.03 0.075,-0.044 0.139,-0.044 l 0.969,0 c 0.032,0.069 0.048,0.143 0.048,0.222 0,0.076 -0.016,0.128 -0.048,0.155 -0.032,0.027 -0.088,0.041 -0.166,0.041 l -0.059,0 c -0.091,0.249 -0.28,0.8 -0.568,1.655 -0.288,0.855 -0.473,1.339 -0.559,1.452 -0.085,0.113 -0.218,0.17 -0.398,0.17 -0.293,0 -0.451,-0.014 -0.471,-0.041 -0.02,-0.027 -0.166,-0.463 -0.436,-1.308 -0.27,-0.845 -0.435,-1.345 -0.494,-1.502 -0.059,-0.156 -0.108,-0.268 -0.148,-0.334 -0.04,-0.066 -0.084,-0.108 -0.133,-0.124 -0.049,-0.016 -0.117,-0.024 -0.204,-0.024 -0.032,-0.079 -0.048,-0.153 -0.048,-0.222 0,-0.074 0.039,-0.122 0.117,-0.144 0.078,-0.022 0.292,-0.033 0.642,-0.033 0.153,0 0.259,0.012 0.318,0.037 0.059,0.025 0.104,0.068 0.135,0.129 0.031,0.062 0.068,0.206 0.111,0.434 0.043,0.228 0.168,0.698 0.374,1.409 0.206,0.711 0.321,1.068 0.344,1.068 0.023,0 0.144,-0.372 0.363,-1.117 0.219,-0.745 0.343,-1.247 0.375,-1.505 z" />
  <path
     style="fill:#a70c5d"
     id="path3404"
     d="m 30.051581,7.8592575 c 0.281,0 0.485,-0.106 0.61,-0.318 0.125,-0.212 0.189,-0.538 0.189,-0.979 0,-0.507 -0.065,-0.884 -0.194,-1.13 -0.129,-0.246 -0.352,-0.369 -0.668,-0.369 -0.281,0 -0.485,0.106 -0.61,0.318 -0.125,0.212 -0.189,0.539 -0.189,0.983 0,0.505 0.065,0.88 0.194,1.127 0.129,0.247 0.352,0.369 0.668,0.369 z m -0.14,0.495 c -0.535,0 -0.928,-0.142 -1.18,-0.425 -0.252,-0.283 -0.377,-0.711 -0.377,-1.282 0,-0.658 0.152,-1.169 0.457,-1.533 0.305,-0.364 0.744,-0.547 1.319,-0.547 0.535,0 0.928,0.142 1.18,0.425 0.252,0.283 0.377,0.712 0.377,1.286 0,0.655 -0.152,1.165 -0.457,1.529 -0.305,0.364 -0.744,0.547 -1.319,0.547 z" />
  <path
     style="fill:#a70c5d"
     id="path3406"
     d="m 14.384581,10.831257 c -0.096,-0.017 -0.195,-0.025 -0.297,-0.025 -0.127,0 -0.216,0.021 -0.266,0.063 -0.05,0.042 -0.076,0.109 -0.076,0.2 0,0.089 0.023,0.156 0.068,0.201 0.045,0.045 0.115,0.067 0.209,0.067 0.073,0 0.142,-0.014 0.205,-0.043 0.063,-0.029 0.105,-0.069 0.126,-0.121 0.02,-0.052 0.031,-0.133 0.031,-0.244 l 0,-0.098 z m 0.034,0.563 c -0.093,0.054 -0.189,0.096 -0.288,0.124 -0.099,0.028 -0.195,0.042 -0.29,0.042 -0.15,0 -0.262,-0.035 -0.335,-0.106 -0.073,-0.071 -0.11,-0.175 -0.11,-0.314 0,-0.17 0.061,-0.3 0.182,-0.39 0.121,-0.09 0.309,-0.135 0.562,-0.135 l 0.245,0 c -0.007,-0.195 -0.035,-0.331 -0.084,-0.408 -0.049,-0.077 -0.137,-0.115 -0.263,-0.115 -0.067,0 -0.131,0.007 -0.192,0.02 -0.032,0.064 -0.052,0.099 -0.057,0.103 -0.005,0.004 -0.038,0.014 -0.096,0.029 -0.058,0.015 -0.098,0.012 -0.121,-0.008 -0.023,-0.02 -0.046,-0.058 -0.07,-0.113 -0.024,-0.054 -0.036,-0.098 -0.036,-0.1319995 0,-0.022 0.009,-0.039 0.028,-0.052 0.019,-0.013 0.093,-0.027 0.224,-0.045 0.131,-0.018 0.271,-0.027 0.419,-0.027 0.197,0 0.342,0.034 0.436,0.102 0.094,0.068 0.141,0.1919995 0.141,0.3729995 l 0,0.513 c 0,0.238 0.01,0.383 0.031,0.435 0.021,0.052 0.055,0.073 0.103,0.063 0.013,0.024 0.02,0.048 0.02,0.072 0,0.038 -0.024,0.067 -0.071,0.087 -0.047,0.02 -0.111,0.03 -0.191,0.03 -0.039,0 -0.069,-0.005 -0.089,-0.014 -0.02,-0.009 -0.053,-0.055 -0.098,-0.136 z" />
  <path
     style="fill:#a70c5d"
     id="path3408"
     d="m 15.773581,10.043257 c -0.106,0 -0.184,0.03 -0.235,0.089 -0.051,0.059 -0.077,0.167 -0.077,0.322 0,0.133 0.025,0.23 0.074,0.292 0.049,0.062 0.127,0.092 0.233,0.092 0.112,0 0.195,-0.027 0.249,-0.082 0.054,-0.055 0.08,-0.159 0.08,-0.311 0,-0.134 -0.027,-0.235 -0.081,-0.302 -0.054,-0.067 -0.135,-0.1 -0.243,-0.1 z m -0.27,1.534 c -0.039,0.039 -0.069,0.083 -0.089,0.132 -0.02,0.049 -0.031,0.098 -0.031,0.148 0,0.076 0.023,0.13 0.068,0.163 0.045,0.033 0.137,0.05 0.274,0.05 0.2,0 0.351,-0.024 0.453,-0.072 0.102,-0.048 0.153,-0.117 0.153,-0.208 0,-0.08 -0.037,-0.136 -0.112,-0.167 -0.075,-0.031 -0.313,-0.047 -0.716,-0.047 z m 0.837,-1.532 c 0.062,0.111 0.093,0.229 0.093,0.355 0,0.188 -0.06,0.339 -0.181,0.455 -0.121,0.116 -0.31,0.173 -0.57,0.173 -0.117,0 -0.193,0.013 -0.227,0.038 -0.034,0.025 -0.052,0.061 -0.052,0.109 0,0.058 0.023,0.099 0.07,0.125 0.047,0.026 0.217,0.038 0.512,0.038 0.29,0 0.478,0.03 0.565,0.089 0.087,0.059 0.129,0.148 0.129,0.264 0,0.175 -0.092,0.314 -0.274,0.416 -0.182,0.102 -0.466,0.153 -0.85,0.153 -0.187,0 -0.312,-0.025 -0.375,-0.076 -0.063,-0.051 -0.095,-0.121 -0.095,-0.212 0,-0.068 0.018,-0.137 0.053,-0.207 0.035,-0.07 0.085,-0.139 0.149,-0.204 -0.055,-0.022 -0.098,-0.055 -0.131,-0.099 -0.033,-0.044 -0.049,-0.098 -0.049,-0.162 0,-0.067 0.021,-0.128 0.063,-0.184 0.042,-0.056 0.107,-0.105 0.193,-0.147 -0.071,-0.029 -0.129,-0.081 -0.173,-0.155 -0.044,-0.074 -0.066,-0.172 -0.066,-0.292 0,-0.195 0.06,-0.356 0.18,-0.481 0.12,-0.1249995 0.301,-0.1879995 0.542,-0.1879995 0.133,0 0.256,0.022 0.369,0.065 0.145,-0.066 0.231,-0.098 0.259,-0.098 0.135,0 0.208,0.004 0.22,0.011 0.012,0.007 0.018,0.019 0.018,0.036 0,0.029 -0.013,0.07 -0.039,0.124 -0.026,0.053999 -0.051,0.081 -0.073,0.081 -0.022,0 -0.096,-0.025 -0.221,-0.075 l -0.04,0.047999 z" />
  <path
     style="fill:#a70c5d"
     id="path3410"
     d="m 17.491581,10.076257 c -0.111,0 -0.196,0.04 -0.254,0.119 -0.058,0.079 -0.09,0.203 -0.095,0.372 l 0.172,0 c 0.182,0 0.307,-0.004 0.373,-0.011 0.066,-0.007 0.105,-0.019 0.115,-0.036 0.011,-0.017 0.016,-0.048 0.016,-0.093 0,-0.11 -0.028,-0.196 -0.083,-0.258 -0.055,-0.062 -0.137,-0.093 -0.244,-0.093 z m 0.063,-0.2229995 c 0.207,0 0.36,0.049 0.46,0.1469995 0.1,0.098 0.15,0.259 0.15,0.483 0,0.099 -0.018,0.168 -0.053,0.207 -0.035,0.039 -0.113,0.058 -0.233,0.058 l -0.737,0 c 0.002,0.181 0.039,0.323 0.109,0.427 0.07,0.104 0.195,0.155 0.374,0.155 0.167,0 0.322,-0.043 0.465,-0.13 0.048,0.048 0.072,0.098 0.072,0.152 0,0.074 -0.061,0.127 -0.184,0.157 -0.123,0.03 -0.262,0.045 -0.416,0.045 -0.285,0 -0.489,-0.06 -0.613,-0.181 -0.124,-0.121 -0.186,-0.323 -0.186,-0.609 0,-0.281 0.07,-0.503 0.209,-0.666 0.139,-0.1629995 0.334,-0.2439995 0.583,-0.2439995 z" />
  <path
     style="fill:#a70c5d"
     id="path3412"
     d="m 18.884581,10.075257 c 0.11,-0.073 0.219,-0.1269995 0.326,-0.1619995 0.107,-0.035 0.203,-0.052 0.288,-0.052 0.148,0 0.259,0.034 0.334,0.102 0.075,0.068 0.113,0.1979995 0.113,0.3909995 0,0.598 0.009,0.914 0.026,0.95 0.017,0.036 0.057,0.053 0.119,0.052 0.012,0.032 0.018,0.064 0.018,0.097 0,0.03 -0.009,0.05 -0.028,0.06 -0.019,0.01 -0.054,0.015 -0.105,0.015 -0.155,0 -0.249,-0.002 -0.284,-0.006 -0.035,-0.004 -0.058,-0.015 -0.07,-0.035 -0.012,-0.02 -0.018,-0.052 -0.018,-0.097 l 0,-0.718 c 0,-0.229 -0.024,-0.381 -0.073,-0.456 -0.049,-0.075 -0.127,-0.113 -0.234,-0.113 -0.092,0 -0.172,0.026 -0.239,0.078 -0.067,0.052 -0.101,0.146 -0.101,0.282 l 0,0.351 c 0,0.197 0.004,0.378 0.012,0.543 l 0.185,0 c 0.013,0.029 0.02,0.06 0.02,0.093 0,0.03 -0.006,0.05 -0.018,0.062 -0.012,0.012 -0.036,0.017 -0.07,0.017 l -0.655,0 c -0.015,-0.035 -0.022,-0.069 -0.022,-0.1 0,-0.024 0.006,-0.042 0.018,-0.054 0.012,-0.012 0.032,-0.017 0.06,-0.017 l 0.115,0 c 0.009,-0.177 0.013,-0.393 0.013,-0.65 0,-0.328 -0.013,-0.518 -0.038,-0.57 -0.025,-0.052 -0.075,-0.078 -0.147,-0.078 -0.015,-0.031 -0.022,-0.063 -0.022,-0.097 0,-0.03 0.012,-0.049 0.035,-0.057 0.023,-0.008 0.171,-0.017 0.442,-0.026 0.007,0.051 0.007,0.117 0,0.1969995 z" />
  <path
     style="fill:#a70c5d"
     id="path3414"
     d="m 21.052581,11.561257 c -0.274,0 -0.468,-0.058 -0.584,-0.172 -0.116,-0.114 -0.173,-0.311 -0.173,-0.589 0,-0.308 0.073,-0.542 0.219,-0.704 0.146,-0.1619995 0.367,-0.2419995 0.665,-0.2419995 0.146,0 0.251,0.014 0.317,0.041 0.066,0.027 0.099,0.068 0.1,0.1219995 0,0.067 -0.023,0.13 -0.07,0.19 -0.167,-0.087 -0.309,-0.13 -0.427,-0.13 -0.155,0 -0.264,0.049 -0.329,0.148 -0.065,0.099 -0.098,0.252 -0.098,0.462 0,0.215 0.032,0.378 0.095,0.487 0.063,0.109 0.179,0.164 0.347,0.164 0.128,0 0.276,-0.043 0.445,-0.128 0.037,0.051 0.055,0.103 0.055,0.157 0,0.063 -0.058,0.112 -0.173,0.145 -0.115,0.033 -0.245,0.05 -0.389,0.05 z" />
  <path
     style="fill:#a70c5d"
     id="path3416"
     d="m 23.302581,10.083257 c -0.053,0.163 -0.16,0.506 -0.321,1.03 -0.161,0.524 -0.28,0.832 -0.357,0.926 -0.077,0.094 -0.164,0.155 -0.262,0.181 -0.098,0.026 -0.208,0.04 -0.333,0.04 -0.121,0 -0.2,-0.009 -0.236,-0.027 -0.036,-0.018 -0.054,-0.05 -0.054,-0.098 0,-0.059 0.019,-0.112 0.057,-0.16 0.209,0.042 0.363,0.058 0.462,0.047 0.099,-0.011 0.197,-0.169 0.295,-0.476 -0.092,-0.003 -0.142,-0.008 -0.15,-0.013 -0.008,-0.005 -0.066,-0.193 -0.175,-0.562 -0.109,-0.369 -0.177,-0.594 -0.204,-0.676 -0.027,-0.082 -0.049,-0.138 -0.065,-0.17 -0.016,-0.032 -0.036,-0.051 -0.061,-0.058 -0.025,-0.007 -0.056,-0.011 -0.095,-0.011 -0.015,-0.037 -0.022,-0.07 -0.022,-0.1019996 0,-0.038 0.019,-0.06 0.057,-0.067 0.038,-0.007 0.115,-0.011 0.23,-0.011 0.089,0 0.149,0.005 0.18,0.016 0.031,0.011 0.053,0.03 0.065,0.058 0.012,0.028 0.031,0.1069996 0.056,0.2359996 0.025,0.129 0.078,0.344 0.158,0.644 0.08,0.3 0.126,0.451 0.136,0.451 0.01,0 0.061,-0.173 0.152,-0.519 0.091,-0.346 0.143,-0.573 0.157,-0.681 l -0.09,0 c -0.013,-0.032 -0.02,-0.065 -0.02,-0.098 0,-0.033 0.006,-0.057 0.019,-0.07 0.013,-0.013 0.034,-0.02 0.063,-0.02 l 0.47,0 c 0.014,0.031 0.022,0.064 0.022,0.1 0,0.034 -0.007,0.058 -0.022,0.07 -0.015,0.012 -0.04,0.018 -0.075,0.018 l -0.037,0 z" />
</svg>
